<?xml version="1.0" encoding="utf-8" standalone="no"?>
<!DOCTYPE svg PUBLIC "-//W3C//DTD SVG 1.1//EN"
  "http://www.w3.org/Graphics/SVG/1.1/DTD/svg11.dtd">
<!-- Created with matplotlib (http://matplotlib.org/) -->
<svg height="360pt" version="1.1" viewBox="0 0 1152 360" width="1152pt" xmlns="http://www.w3.org/2000/svg" xmlns:xlink="http://www.w3.org/1999/xlink">
 <defs>
  <style type="text/css">
*{stroke-linecap:butt;stroke-linejoin:round;}
  </style>
 </defs>
 <g id="figure_1">
  <g id="patch_1">
   <path d="M 0 360 
L 1152 360 
L 1152 0 
L 0 0 
z
" style="fill:#ffffff;"/>
  </g>
  <g id="axes_1">
   <g id="patch_2">
    <path d="M 144 320.4 
L 406.588235 320.4 
L 406.588235 43.2 
L 144 43.2 
z
" style="fill:#ffffff;"/>
   </g>
   <g id="patch_3">
    <path clip-path="url(#p5f310b97af)" d="M 155.935829 320.4 
L 160.356506 320.4 
L 160.356506 80.330935 
L 155.935829 80.330935 
z
" style="fill:#427da6;"/>
   </g>
   <g id="patch_4">
    <path clip-path="url(#p5f310b97af)" d="M 178.039216 320.4 
L 182.459893 320.4 
L 182.459893 302.166906 
L 178.039216 302.166906 
z
" style="fill:#427da6;"/>
   </g>
   <g id="patch_5">
    <path clip-path="url(#p5f310b97af)" d="M 200.142602 320.4 
L 204.56328 320.4 
L 204.56328 316.221583 
L 200.142602 316.221583 
z
" style="fill:#427da6;"/>
   </g>
   <g id="patch_6">
    <path clip-path="url(#p5f310b97af)" d="M 222.245989 320.4 
L 226.666667 320.4 
L 226.666667 318.880576 
L 222.245989 318.880576 
z
" style="fill:#427da6;"/>
   </g>
   <g id="patch_7">
    <path clip-path="url(#p5f310b97af)" d="M 244.349376 320.4 
L 248.770053 320.4 
L 248.770053 319.640288 
L 244.349376 319.640288 
z
" style="fill:#427da6;"/>
   </g>
   <g id="patch_8">
    <path clip-path="url(#p5f310b97af)" d="M 266.452763 320.4 
L 270.87344 320.4 
L 270.87344 319.640288 
L 266.452763 319.640288 
z
" style="fill:#427da6;"/>
   </g>
   <g id="patch_9">
    <path clip-path="url(#p5f310b97af)" d="M 288.55615 320.4 
L 292.976827 320.4 
L 292.976827 320.4 
L 288.55615 320.4 
z
" style="fill:#427da6;"/>
   </g>
   <g id="patch_10">
    <path clip-path="url(#p5f310b97af)" d="M 310.659537 320.4 
L 315.080214 320.4 
L 315.080214 320.4 
L 310.659537 320.4 
z
" style="fill:#427da6;"/>
   </g>
   <g id="patch_11">
    <path clip-path="url(#p5f310b97af)" d="M 332.762923 320.4 
L 337.183601 320.4 
L 337.183601 320.020144 
L 332.762923 320.020144 
z
" style="fill:#427da6;"/>
   </g>
   <g id="patch_12">
    <path clip-path="url(#p5f310b97af)" d="M 354.86631 320.4 
L 359.286988 320.4 
L 359.286988 320.4 
L 354.86631 320.4 
z
" style="fill:#427da6;"/>
   </g>
   <g id="patch_13">
    <path clip-path="url(#p5f310b97af)" d="M 376.969697 320.4 
L 381.390374 320.4 
L 381.390374 320.4 
L 376.969697 320.4 
z
" style="fill:#427da6;"/>
   </g>
   <g id="patch_14">
    <path clip-path="url(#p5f310b97af)" d="M 160.356506 320.4 
L 164.777184 320.4 
L 164.777184 64.756835 
L 160.356506 64.756835 
z
" style="fill:#ffa500;"/>
   </g>
   <g id="patch_15">
    <path clip-path="url(#p5f310b97af)" d="M 182.459893 320.4 
L 186.88057 320.4 
L 186.88057 312.802878 
L 182.459893 312.802878 
z
" style="fill:#ffa500;"/>
   </g>
   <g id="patch_16">
    <path clip-path="url(#p5f310b97af)" d="M 204.56328 320.4 
L 208.983957 320.4 
L 208.983957 319.640288 
L 204.56328 319.640288 
z
" style="fill:#ffa500;"/>
   </g>
   <g id="patch_17">
    <path clip-path="url(#p5f310b97af)" d="M 226.666667 320.4 
L 231.087344 320.4 
L 231.087344 319.260432 
L 226.666667 319.260432 
z
" style="fill:#ffa500;"/>
   </g>
   <g id="patch_18">
    <path clip-path="url(#p5f310b97af)" d="M 248.770053 320.4 
L 253.190731 320.4 
L 253.190731 320.4 
L 248.770053 320.4 
z
" style="fill:#ffa500;"/>
   </g>
   <g id="patch_19">
    <path clip-path="url(#p5f310b97af)" d="M 270.87344 320.4 
L 275.294118 320.4 
L 275.294118 320.4 
L 270.87344 320.4 
z
" style="fill:#ffa500;"/>
   </g>
   <g id="patch_20">
    <path clip-path="url(#p5f310b97af)" d="M 292.976827 320.4 
L 297.397504 320.4 
L 297.397504 320.4 
L 292.976827 320.4 
z
" style="fill:#ffa500;"/>
   </g>
   <g id="patch_21">
    <path clip-path="url(#p5f310b97af)" d="M 315.080214 320.4 
L 319.500891 320.4 
L 319.500891 320.4 
L 315.080214 320.4 
z
" style="fill:#ffa500;"/>
   </g>
   <g id="patch_22">
    <path clip-path="url(#p5f310b97af)" d="M 337.183601 320.4 
L 341.604278 320.4 
L 341.604278 320.4 
L 337.183601 320.4 
z
" style="fill:#ffa500;"/>
   </g>
   <g id="patch_23">
    <path clip-path="url(#p5f310b97af)" d="M 359.286988 320.4 
L 363.707665 320.4 
L 363.707665 320.4 
L 359.286988 320.4 
z
" style="fill:#ffa500;"/>
   </g>
   <g id="patch_24">
    <path clip-path="url(#p5f310b97af)" d="M 381.390374 320.4 
L 385.811052 320.4 
L 385.811052 320.4 
L 381.390374 320.4 
z
" style="fill:#ffa500;"/>
   </g>
   <g id="patch_25">
    <path clip-path="url(#p5f310b97af)" d="M 164.777184 320.4 
L 169.197861 320.4 
L 169.197861 60.578417 
L 164.777184 60.578417 
z
" style="fill:#008000;"/>
   </g>
   <g id="patch_26">
    <path clip-path="url(#p5f310b97af)" d="M 186.88057 320.4 
L 191.301248 320.4 
L 191.301248 318.120863 
L 186.88057 318.120863 
z
" style="fill:#008000;"/>
   </g>
   <g id="patch_27">
    <path clip-path="url(#p5f310b97af)" d="M 208.983957 320.4 
L 213.404635 320.4 
L 213.404635 319.640288 
L 208.983957 319.640288 
z
" style="fill:#008000;"/>
   </g>
   <g id="patch_28">
    <path clip-path="url(#p5f310b97af)" d="M 231.087344 320.4 
L 235.508021 320.4 
L 235.508021 320.4 
L 231.087344 320.4 
z
" style="fill:#008000;"/>
   </g>
   <g id="patch_29">
    <path clip-path="url(#p5f310b97af)" d="M 253.190731 320.4 
L 257.611408 320.4 
L 257.611408 320.4 
L 253.190731 320.4 
z
" style="fill:#008000;"/>
   </g>
   <g id="patch_30">
    <path clip-path="url(#p5f310b97af)" d="M 275.294118 320.4 
L 279.714795 320.4 
L 279.714795 320.4 
L 275.294118 320.4 
z
" style="fill:#008000;"/>
   </g>
   <g id="patch_31">
    <path clip-path="url(#p5f310b97af)" d="M 297.397504 320.4 
L 301.818182 320.4 
L 301.818182 320.020144 
L 297.397504 320.020144 
z
" style="fill:#008000;"/>
   </g>
   <g id="patch_32">
    <path clip-path="url(#p5f310b97af)" d="M 319.500891 320.4 
L 323.921569 320.4 
L 323.921569 320.4 
L 319.500891 320.4 
z
" style="fill:#008000;"/>
   </g>
   <g id="patch_33">
    <path clip-path="url(#p5f310b97af)" d="M 341.604278 320.4 
L 346.024955 320.4 
L 346.024955 320.4 
L 341.604278 320.4 
z
" style="fill:#008000;"/>
   </g>
   <g id="patch_34">
    <path clip-path="url(#p5f310b97af)" d="M 363.707665 320.4 
L 368.128342 320.4 
L 368.128342 320.4 
L 363.707665 320.4 
z
" style="fill:#008000;"/>
   </g>
   <g id="patch_35">
    <path clip-path="url(#p5f310b97af)" d="M 385.811052 320.4 
L 390.231729 320.4 
L 390.231729 320.4 
L 385.811052 320.4 
z
" style="fill:#008000;"/>
   </g>
   <g id="patch_36">
    <path clip-path="url(#p5f310b97af)" d="M 169.197861 320.4 
L 173.618538 320.4 
L 173.618538 56.4 
L 169.197861 56.4 
z
" style="fill:#ff0000;"/>
   </g>
   <g id="patch_37">
    <path clip-path="url(#p5f310b97af)" d="M 191.301248 320.4 
L 195.721925 320.4 
L 195.721925 320.020144 
L 191.301248 320.020144 
z
" style="fill:#ff0000;"/>
   </g>
   <g id="patch_38">
    <path clip-path="url(#p5f310b97af)" d="M 213.404635 320.4 
L 217.825312 320.4 
L 217.825312 319.640288 
L 213.404635 319.640288 
z
" style="fill:#ff0000;"/>
   </g>
   <g id="patch_39">
    <path clip-path="url(#p5f310b97af)" d="M 235.508021 320.4 
L 239.928699 320.4 
L 239.928699 320.4 
L 235.508021 320.4 
z
" style="fill:#ff0000;"/>
   </g>
   <g id="patch_40">
    <path clip-path="url(#p5f310b97af)" d="M 257.611408 320.4 
L 262.032086 320.4 
L 262.032086 320.4 
L 257.611408 320.4 
z
" style="fill:#ff0000;"/>
   </g>
   <g id="patch_41">
    <path clip-path="url(#p5f310b97af)" d="M 279.714795 320.4 
L 284.135472 320.4 
L 284.135472 320.4 
L 279.714795 320.4 
z
" style="fill:#ff0000;"/>
   </g>
   <g id="patch_42">
    <path clip-path="url(#p5f310b97af)" d="M 301.818182 320.4 
L 306.238859 320.4 
L 306.238859 320.020144 
L 301.818182 320.020144 
z
" style="fill:#ff0000;"/>
   </g>
   <g id="patch_43">
    <path clip-path="url(#p5f310b97af)" d="M 323.921569 320.4 
L 328.342246 320.4 
L 328.342246 320.4 
L 323.921569 320.4 
z
" style="fill:#ff0000;"/>
   </g>
   <g id="patch_44">
    <path clip-path="url(#p5f310b97af)" d="M 346.024955 320.4 
L 350.445633 320.4 
L 350.445633 320.4 
L 346.024955 320.4 
z
" style="fill:#ff0000;"/>
   </g>
   <g id="patch_45">
    <path clip-path="url(#p5f310b97af)" d="M 368.128342 320.4 
L 372.54902 320.4 
L 372.54902 320.4 
L 368.128342 320.4 
z
" style="fill:#ff0000;"/>
   </g>
   <g id="patch_46">
    <path clip-path="url(#p5f310b97af)" d="M 390.231729 320.4 
L 394.652406 320.4 
L 394.652406 320.4 
L 390.231729 320.4 
z
" style="fill:#ff0000;"/>
   </g>
   <g id="matplotlib.axis_1">
    <g id="xtick_1">
     <g id="line2d_1">
      <defs>
       <path d="M 0 0 
L 0 3.5 
" id="md57ea945a7" style="stroke:#000000;stroke-width:0.8;"/>
      </defs>
      <g>
       <use style="stroke:#000000;stroke-width:0.8;" x="166.987522" xlink:href="#md57ea945a7" y="320.4"/>
      </g>
     </g>
     <g id="text_1">
      <!-- 1 -->
      <defs>
       <path d="M 12.40625 8.296875 
L 28.515625 8.296875 
L 28.515625 63.921875 
L 10.984375 60.40625 
L 10.984375 69.390625 
L 28.421875 72.90625 
L 38.28125 72.90625 
L 38.28125 8.296875 
L 54.390625 8.296875 
L 54.390625 0 
L 12.40625 0 
z
" id="DejaVuSans-31"/>
      </defs>
      <g transform="translate(163.806272 334.998438)scale(0.1 -0.1)">
       <use xlink:href="#DejaVuSans-31"/>
      </g>
     </g>
    </g>
    <g id="xtick_2">
     <g id="line2d_2">
      <g>
       <use style="stroke:#000000;stroke-width:0.8;" x="189.090909" xlink:href="#md57ea945a7" y="320.4"/>
      </g>
     </g>
     <g id="text_2">
      <!-- 2 -->
      <defs>
       <path d="M 19.1875 8.296875 
L 53.609375 8.296875 
L 53.609375 0 
L 7.328125 0 
L 7.328125 8.296875 
Q 12.9375 14.109375 22.625 23.890625 
Q 32.328125 33.6875 34.8125 36.53125 
Q 39.546875 41.84375 41.421875 45.53125 
Q 43.3125 49.21875 43.3125 52.78125 
Q 43.3125 58.59375 39.234375 62.25 
Q 35.15625 65.921875 28.609375 65.921875 
Q 23.96875 65.921875 18.8125 64.3125 
Q 13.671875 62.703125 7.8125 59.421875 
L 7.8125 69.390625 
Q 13.765625 71.78125 18.9375 73 
Q 24.125 74.21875 28.421875 74.21875 
Q 39.75 74.21875 46.484375 68.546875 
Q 53.21875 62.890625 53.21875 53.421875 
Q 53.21875 48.921875 51.53125 44.890625 
Q 49.859375 40.875 45.40625 35.40625 
Q 44.1875 33.984375 37.640625 27.21875 
Q 31.109375 20.453125 19.1875 8.296875 
z
" id="DejaVuSans-32"/>
      </defs>
      <g transform="translate(185.909659 334.998438)scale(0.1 -0.1)">
       <use xlink:href="#DejaVuSans-32"/>
      </g>
     </g>
    </g>
    <g id="xtick_3">
     <g id="line2d_3">
      <g>
       <use style="stroke:#000000;stroke-width:0.8;" x="211.194296" xlink:href="#md57ea945a7" y="320.4"/>
      </g>
     </g>
     <g id="text_3">
      <!-- 3 -->
      <defs>
       <path d="M 40.578125 39.3125 
Q 47.65625 37.796875 51.625 33 
Q 55.609375 28.21875 55.609375 21.1875 
Q 55.609375 10.40625 48.1875 4.484375 
Q 40.765625 -1.421875 27.09375 -1.421875 
Q 22.515625 -1.421875 17.65625 -0.515625 
Q 12.796875 0.390625 7.625 2.203125 
L 7.625 11.71875 
Q 11.71875 9.328125 16.59375 8.109375 
Q 21.484375 6.890625 26.8125 6.890625 
Q 36.078125 6.890625 40.9375 10.546875 
Q 45.796875 14.203125 45.796875 21.1875 
Q 45.796875 27.640625 41.28125 31.265625 
Q 36.765625 34.90625 28.71875 34.90625 
L 20.21875 34.90625 
L 20.21875 43.015625 
L 29.109375 43.015625 
Q 36.375 43.015625 40.234375 45.921875 
Q 44.09375 48.828125 44.09375 54.296875 
Q 44.09375 59.90625 40.109375 62.90625 
Q 36.140625 65.921875 28.71875 65.921875 
Q 24.65625 65.921875 20.015625 65.03125 
Q 15.375 64.15625 9.8125 62.3125 
L 9.8125 71.09375 
Q 15.4375 72.65625 20.34375 73.4375 
Q 25.25 74.21875 29.59375 74.21875 
Q 40.828125 74.21875 47.359375 69.109375 
Q 53.90625 64.015625 53.90625 55.328125 
Q 53.90625 49.265625 50.4375 45.09375 
Q 46.96875 40.921875 40.578125 39.3125 
z
" id="DejaVuSans-33"/>
      </defs>
      <g transform="translate(208.013046 334.998438)scale(0.1 -0.1)">
       <use xlink:href="#DejaVuSans-33"/>
      </g>
     </g>
    </g>
    <g id="xtick_4">
     <g id="line2d_4">
      <g>
       <use style="stroke:#000000;stroke-width:0.8;" x="233.297683" xlink:href="#md57ea945a7" y="320.4"/>
      </g>
     </g>
     <g id="text_4">
      <!-- 4 -->
      <defs>
       <path d="M 37.796875 64.3125 
L 12.890625 25.390625 
L 37.796875 25.390625 
z
M 35.203125 72.90625 
L 47.609375 72.90625 
L 47.609375 25.390625 
L 58.015625 25.390625 
L 58.015625 17.1875 
L 47.609375 17.1875 
L 47.609375 0 
L 37.796875 0 
L 37.796875 17.1875 
L 4.890625 17.1875 
L 4.890625 26.703125 
z
" id="DejaVuSans-34"/>
      </defs>
      <g transform="translate(230.116433 334.998438)scale(0.1 -0.1)">
       <use xlink:href="#DejaVuSans-34"/>
      </g>
     </g>
    </g>
    <g id="xtick_5">
     <g id="line2d_5">
      <g>
       <use style="stroke:#000000;stroke-width:0.8;" x="255.40107" xlink:href="#md57ea945a7" y="320.4"/>
      </g>
     </g>
     <g id="text_5">
      <!-- 5 -->
      <defs>
       <path d="M 10.796875 72.90625 
L 49.515625 72.90625 
L 49.515625 64.59375 
L 19.828125 64.59375 
L 19.828125 46.734375 
Q 21.96875 47.46875 24.109375 47.828125 
Q 26.265625 48.1875 28.421875 48.1875 
Q 40.625 48.1875 47.75 41.5 
Q 54.890625 34.8125 54.890625 23.390625 
Q 54.890625 11.625 47.5625 5.09375 
Q 40.234375 -1.421875 26.90625 -1.421875 
Q 22.3125 -1.421875 17.546875 -0.640625 
Q 12.796875 0.140625 7.71875 1.703125 
L 7.71875 11.625 
Q 12.109375 9.234375 16.796875 8.0625 
Q 21.484375 6.890625 26.703125 6.890625 
Q 35.15625 6.890625 40.078125 11.328125 
Q 45.015625 15.765625 45.015625 23.390625 
Q 45.015625 31 40.078125 35.4375 
Q 35.15625 39.890625 26.703125 39.890625 
Q 22.75 39.890625 18.8125 39.015625 
Q 14.890625 38.140625 10.796875 36.28125 
z
" id="DejaVuSans-35"/>
      </defs>
      <g transform="translate(252.21982 334.998438)scale(0.1 -0.1)">
       <use xlink:href="#DejaVuSans-35"/>
      </g>
     </g>
    </g>
    <g id="xtick_6">
     <g id="line2d_6">
      <g>
       <use style="stroke:#000000;stroke-width:0.8;" x="277.504456" xlink:href="#md57ea945a7" y="320.4"/>
      </g>
     </g>
     <g id="text_6">
      <!-- 6 -->
      <defs>
       <path d="M 33.015625 40.375 
Q 26.375 40.375 22.484375 35.828125 
Q 18.609375 31.296875 18.609375 23.390625 
Q 18.609375 15.53125 22.484375 10.953125 
Q 26.375 6.390625 33.015625 6.390625 
Q 39.65625 6.390625 43.53125 10.953125 
Q 47.40625 15.53125 47.40625 23.390625 
Q 47.40625 31.296875 43.53125 35.828125 
Q 39.65625 40.375 33.015625 40.375 
z
M 52.59375 71.296875 
L 52.59375 62.3125 
Q 48.875 64.0625 45.09375 64.984375 
Q 41.3125 65.921875 37.59375 65.921875 
Q 27.828125 65.921875 22.671875 59.328125 
Q 17.53125 52.734375 16.796875 39.40625 
Q 19.671875 43.65625 24.015625 45.921875 
Q 28.375 48.1875 33.59375 48.1875 
Q 44.578125 48.1875 50.953125 41.515625 
Q 57.328125 34.859375 57.328125 23.390625 
Q 57.328125 12.15625 50.6875 5.359375 
Q 44.046875 -1.421875 33.015625 -1.421875 
Q 20.359375 -1.421875 13.671875 8.265625 
Q 6.984375 17.96875 6.984375 36.375 
Q 6.984375 53.65625 15.1875 63.9375 
Q 23.390625 74.21875 37.203125 74.21875 
Q 40.921875 74.21875 44.703125 73.484375 
Q 48.484375 72.75 52.59375 71.296875 
z
" id="DejaVuSans-36"/>
      </defs>
      <g transform="translate(274.323206 334.998438)scale(0.1 -0.1)">
       <use xlink:href="#DejaVuSans-36"/>
      </g>
     </g>
    </g>
    <g id="xtick_7">
     <g id="line2d_7">
      <g>
       <use style="stroke:#000000;stroke-width:0.8;" x="299.607843" xlink:href="#md57ea945a7" y="320.4"/>
      </g>
     </g>
     <g id="text_7">
      <!-- 7 -->
      <defs>
       <path d="M 8.203125 72.90625 
L 55.078125 72.90625 
L 55.078125 68.703125 
L 28.609375 0 
L 18.3125 0 
L 43.21875 64.59375 
L 8.203125 64.59375 
z
" id="DejaVuSans-37"/>
      </defs>
      <g transform="translate(296.426593 334.998438)scale(0.1 -0.1)">
       <use xlink:href="#DejaVuSans-37"/>
      </g>
     </g>
    </g>
    <g id="xtick_8">
     <g id="line2d_8">
      <g>
       <use style="stroke:#000000;stroke-width:0.8;" x="321.71123" xlink:href="#md57ea945a7" y="320.4"/>
      </g>
     </g>
     <g id="text_8">
      <!-- 8 -->
      <defs>
       <path d="M 31.78125 34.625 
Q 24.75 34.625 20.71875 30.859375 
Q 16.703125 27.09375 16.703125 20.515625 
Q 16.703125 13.921875 20.71875 10.15625 
Q 24.75 6.390625 31.78125 6.390625 
Q 38.8125 6.390625 42.859375 10.171875 
Q 46.921875 13.96875 46.921875 20.515625 
Q 46.921875 27.09375 42.890625 30.859375 
Q 38.875 34.625 31.78125 34.625 
z
M 21.921875 38.8125 
Q 15.578125 40.375 12.03125 44.71875 
Q 8.5 49.078125 8.5 55.328125 
Q 8.5 64.0625 14.71875 69.140625 
Q 20.953125 74.21875 31.78125 74.21875 
Q 42.671875 74.21875 48.875 69.140625 
Q 55.078125 64.0625 55.078125 55.328125 
Q 55.078125 49.078125 51.53125 44.71875 
Q 48 40.375 41.703125 38.8125 
Q 48.828125 37.15625 52.796875 32.3125 
Q 56.78125 27.484375 56.78125 20.515625 
Q 56.78125 9.90625 50.3125 4.234375 
Q 43.84375 -1.421875 31.78125 -1.421875 
Q 19.734375 -1.421875 13.25 4.234375 
Q 6.78125 9.90625 6.78125 20.515625 
Q 6.78125 27.484375 10.78125 32.3125 
Q 14.796875 37.15625 21.921875 38.8125 
z
M 18.3125 54.390625 
Q 18.3125 48.734375 21.84375 45.5625 
Q 25.390625 42.390625 31.78125 42.390625 
Q 38.140625 42.390625 41.71875 45.5625 
Q 45.3125 48.734375 45.3125 54.390625 
Q 45.3125 60.0625 41.71875 63.234375 
Q 38.140625 66.40625 31.78125 66.40625 
Q 25.390625 66.40625 21.84375 63.234375 
Q 18.3125 60.0625 18.3125 54.390625 
z
" id="DejaVuSans-38"/>
      </defs>
      <g transform="translate(318.52998 334.998438)scale(0.1 -0.1)">
       <use xlink:href="#DejaVuSans-38"/>
      </g>
     </g>
    </g>
    <g id="xtick_9">
     <g id="line2d_9">
      <g>
       <use style="stroke:#000000;stroke-width:0.8;" x="343.814617" xlink:href="#md57ea945a7" y="320.4"/>
      </g>
     </g>
     <g id="text_9">
      <!-- 9 -->
      <defs>
       <path d="M 10.984375 1.515625 
L 10.984375 10.5 
Q 14.703125 8.734375 18.5 7.8125 
Q 22.3125 6.890625 25.984375 6.890625 
Q 35.75 6.890625 40.890625 13.453125 
Q 46.046875 20.015625 46.78125 33.40625 
Q 43.953125 29.203125 39.59375 26.953125 
Q 35.25 24.703125 29.984375 24.703125 
Q 19.046875 24.703125 12.671875 31.3125 
Q 6.296875 37.9375 6.296875 49.421875 
Q 6.296875 60.640625 12.9375 67.421875 
Q 19.578125 74.21875 30.609375 74.21875 
Q 43.265625 74.21875 49.921875 64.515625 
Q 56.59375 54.828125 56.59375 36.375 
Q 56.59375 19.140625 48.40625 8.859375 
Q 40.234375 -1.421875 26.421875 -1.421875 
Q 22.703125 -1.421875 18.890625 -0.6875 
Q 15.09375 0.046875 10.984375 1.515625 
z
M 30.609375 32.421875 
Q 37.25 32.421875 41.125 36.953125 
Q 45.015625 41.5 45.015625 49.421875 
Q 45.015625 57.28125 41.125 61.84375 
Q 37.25 66.40625 30.609375 66.40625 
Q 23.96875 66.40625 20.09375 61.84375 
Q 16.21875 57.28125 16.21875 49.421875 
Q 16.21875 41.5 20.09375 36.953125 
Q 23.96875 32.421875 30.609375 32.421875 
z
" id="DejaVuSans-39"/>
      </defs>
      <g transform="translate(340.633367 334.998438)scale(0.1 -0.1)">
       <use xlink:href="#DejaVuSans-39"/>
      </g>
     </g>
    </g>
    <g id="xtick_10">
     <g id="line2d_10">
      <g>
       <use style="stroke:#000000;stroke-width:0.8;" x="365.918004" xlink:href="#md57ea945a7" y="320.4"/>
      </g>
     </g>
     <g id="text_10">
      <!-- 10 -->
      <defs>
       <path d="M 31.78125 66.40625 
Q 24.171875 66.40625 20.328125 58.90625 
Q 16.5 51.421875 16.5 36.375 
Q 16.5 21.390625 20.328125 13.890625 
Q 24.171875 6.390625 31.78125 6.390625 
Q 39.453125 6.390625 43.28125 13.890625 
Q 47.125 21.390625 47.125 36.375 
Q 47.125 51.421875 43.28125 58.90625 
Q 39.453125 66.40625 31.78125 66.40625 
z
M 31.78125 74.21875 
Q 44.046875 74.21875 50.515625 64.515625 
Q 56.984375 54.828125 56.984375 36.375 
Q 56.984375 17.96875 50.515625 8.265625 
Q 44.046875 -1.421875 31.78125 -1.421875 
Q 19.53125 -1.421875 13.0625 8.265625 
Q 6.59375 17.96875 6.59375 36.375 
Q 6.59375 54.828125 13.0625 64.515625 
Q 19.53125 74.21875 31.78125 74.21875 
z
" id="DejaVuSans-30"/>
      </defs>
      <g transform="translate(359.555504 334.998438)scale(0.1 -0.1)">
       <use xlink:href="#DejaVuSans-31"/>
       <use x="63.623047" xlink:href="#DejaVuSans-30"/>
      </g>
     </g>
    </g>
    <g id="xtick_11">
     <g id="line2d_11">
      <g>
       <use style="stroke:#000000;stroke-width:0.8;" x="388.02139" xlink:href="#md57ea945a7" y="320.4"/>
      </g>
     </g>
     <g id="text_11">
      <!-- 11 -->
      <g transform="translate(381.65889 334.998438)scale(0.1 -0.1)">
       <use xlink:href="#DejaVuSans-31"/>
       <use x="63.623047" xlink:href="#DejaVuSans-31"/>
      </g>
     </g>
    </g>
    <g id="text_12">
     <!-- Layers -->
     <defs>
      <path d="M 9.8125 72.90625 
L 19.671875 72.90625 
L 19.671875 8.296875 
L 55.171875 8.296875 
L 55.171875 0 
L 9.8125 0 
z
" id="DejaVuSans-4c"/>
      <path d="M 34.28125 27.484375 
Q 23.390625 27.484375 19.1875 25 
Q 14.984375 22.515625 14.984375 16.5 
Q 14.984375 11.71875 18.140625 8.90625 
Q 21.296875 6.109375 26.703125 6.109375 
Q 34.1875 6.109375 38.703125 11.40625 
Q 43.21875 16.703125 43.21875 25.484375 
L 43.21875 27.484375 
z
M 52.203125 31.203125 
L 52.203125 0 
L 43.21875 0 
L 43.21875 8.296875 
Q 40.140625 3.328125 35.546875 0.953125 
Q 30.953125 -1.421875 24.3125 -1.421875 
Q 15.921875 -1.421875 10.953125 3.296875 
Q 6 8.015625 6 15.921875 
Q 6 25.140625 12.171875 29.828125 
Q 18.359375 34.515625 30.609375 34.515625 
L 43.21875 34.515625 
L 43.21875 35.40625 
Q 43.21875 41.609375 39.140625 45 
Q 35.0625 48.390625 27.6875 48.390625 
Q 23 48.390625 18.546875 47.265625 
Q 14.109375 46.140625 10.015625 43.890625 
L 10.015625 52.203125 
Q 14.9375 54.109375 19.578125 55.046875 
Q 24.21875 56 28.609375 56 
Q 40.484375 56 46.34375 49.84375 
Q 52.203125 43.703125 52.203125 31.203125 
z
" id="DejaVuSans-61"/>
      <path d="M 32.171875 -5.078125 
Q 28.375 -14.84375 24.75 -17.8125 
Q 21.140625 -20.796875 15.09375 -20.796875 
L 7.90625 -20.796875 
L 7.90625 -13.28125 
L 13.1875 -13.28125 
Q 16.890625 -13.28125 18.9375 -11.515625 
Q 21 -9.765625 23.484375 -3.21875 
L 25.09375 0.875 
L 2.984375 54.6875 
L 12.5 54.6875 
L 29.59375 11.921875 
L 46.6875 54.6875 
L 56.203125 54.6875 
z
" id="DejaVuSans-79"/>
      <path d="M 56.203125 29.59375 
L 56.203125 25.203125 
L 14.890625 25.203125 
Q 15.484375 15.921875 20.484375 11.0625 
Q 25.484375 6.203125 34.421875 6.203125 
Q 39.59375 6.203125 44.453125 7.46875 
Q 49.3125 8.734375 54.109375 11.28125 
L 54.109375 2.78125 
Q 49.265625 0.734375 44.1875 -0.34375 
Q 39.109375 -1.421875 33.890625 -1.421875 
Q 20.796875 -1.421875 13.15625 6.1875 
Q 5.515625 13.8125 5.515625 26.8125 
Q 5.515625 40.234375 12.765625 48.109375 
Q 20.015625 56 32.328125 56 
Q 43.359375 56 49.78125 48.890625 
Q 56.203125 41.796875 56.203125 29.59375 
z
M 47.21875 32.234375 
Q 47.125 39.59375 43.09375 43.984375 
Q 39.0625 48.390625 32.421875 48.390625 
Q 24.90625 48.390625 20.390625 44.140625 
Q 15.875 39.890625 15.1875 32.171875 
z
" id="DejaVuSans-65"/>
      <path d="M 41.109375 46.296875 
Q 39.59375 47.171875 37.8125 47.578125 
Q 36.03125 48 33.890625 48 
Q 26.265625 48 22.1875 43.046875 
Q 18.109375 38.09375 18.109375 28.8125 
L 18.109375 0 
L 9.078125 0 
L 9.078125 54.6875 
L 18.109375 54.6875 
L 18.109375 46.1875 
Q 20.953125 51.171875 25.484375 53.578125 
Q 30.03125 56 36.53125 56 
Q 37.453125 56 38.578125 55.875 
Q 39.703125 55.765625 41.0625 55.515625 
z
" id="DejaVuSans-72"/>
      <path d="M 44.28125 53.078125 
L 44.28125 44.578125 
Q 40.484375 46.53125 36.375 47.5 
Q 32.28125 48.484375 27.875 48.484375 
Q 21.1875 48.484375 17.84375 46.4375 
Q 14.5 44.390625 14.5 40.28125 
Q 14.5 37.15625 16.890625 35.375 
Q 19.28125 33.59375 26.515625 31.984375 
L 29.59375 31.296875 
Q 39.15625 29.25 43.1875 25.515625 
Q 47.21875 21.78125 47.21875 15.09375 
Q 47.21875 7.46875 41.1875 3.015625 
Q 35.15625 -1.421875 24.609375 -1.421875 
Q 20.21875 -1.421875 15.453125 -0.5625 
Q 10.6875 0.296875 5.421875 2 
L 5.421875 11.28125 
Q 10.40625 8.6875 15.234375 7.390625 
Q 20.0625 6.109375 24.8125 6.109375 
Q 31.15625 6.109375 34.5625 8.28125 
Q 37.984375 10.453125 37.984375 14.40625 
Q 37.984375 18.0625 35.515625 20.015625 
Q 33.0625 21.96875 24.703125 23.78125 
L 21.578125 24.515625 
Q 13.234375 26.265625 9.515625 29.90625 
Q 5.8125 33.546875 5.8125 39.890625 
Q 5.8125 47.609375 11.28125 51.796875 
Q 16.75 56 26.8125 56 
Q 31.78125 56 36.171875 55.265625 
Q 40.578125 54.546875 44.28125 53.078125 
z
" id="DejaVuSans-73"/>
     </defs>
     <g transform="translate(258.748024 348.676562)scale(0.1 -0.1)">
      <use xlink:href="#DejaVuSans-4c"/>
      <use x="55.712891" xlink:href="#DejaVuSans-61"/>
      <use x="116.992188" xlink:href="#DejaVuSans-79"/>
      <use x="176.171875" xlink:href="#DejaVuSans-65"/>
      <use x="237.695312" xlink:href="#DejaVuSans-72"/>
      <use x="278.808594" xlink:href="#DejaVuSans-73"/>
     </g>
    </g>
   </g>
   <g id="matplotlib.axis_2">
    <g id="ytick_1">
     <g id="line2d_12">
      <path clip-path="url(#p5f310b97af)" d="M 144 320.4 
L 406.588235 320.4 
" style="fill:none;stroke:#b0b0b0;stroke-dasharray:2.96,1.28;stroke-dashoffset:0;stroke-width:0.8;"/>
     </g>
     <g id="line2d_13">
      <defs>
       <path d="M 0 0 
L -3.5 0 
" id="m050195f13d" style="stroke:#000000;stroke-width:0.8;"/>
      </defs>
      <g>
       <use style="stroke:#000000;stroke-width:0.8;" x="144" xlink:href="#m050195f13d" y="320.4"/>
      </g>
     </g>
     <g id="text_13">
      <!-- 0 -->
      <g transform="translate(130.6375 324.199219)scale(0.1 -0.1)">
       <use xlink:href="#DejaVuSans-30"/>
      </g>
     </g>
    </g>
    <g id="ytick_2">
     <g id="line2d_14">
      <path clip-path="url(#p5f310b97af)" d="M 144 282.414388 
L 406.588235 282.414388 
" style="fill:none;stroke:#b0b0b0;stroke-dasharray:2.96,1.28;stroke-dashoffset:0;stroke-width:0.8;"/>
     </g>
     <g id="line2d_15">
      <g>
       <use style="stroke:#000000;stroke-width:0.8;" x="144" xlink:href="#m050195f13d" y="282.414388"/>
      </g>
     </g>
     <g id="text_14">
      <!-- 100 -->
      <g transform="translate(117.9125 286.213607)scale(0.1 -0.1)">
       <use xlink:href="#DejaVuSans-31"/>
       <use x="63.623047" xlink:href="#DejaVuSans-30"/>
       <use x="127.246094" xlink:href="#DejaVuSans-30"/>
      </g>
     </g>
    </g>
    <g id="ytick_3">
     <g id="line2d_16">
      <path clip-path="url(#p5f310b97af)" d="M 144 244.428777 
L 406.588235 244.428777 
" style="fill:none;stroke:#b0b0b0;stroke-dasharray:2.96,1.28;stroke-dashoffset:0;stroke-width:0.8;"/>
     </g>
     <g id="line2d_17">
      <g>
       <use style="stroke:#000000;stroke-width:0.8;" x="144" xlink:href="#m050195f13d" y="244.428777"/>
      </g>
     </g>
     <g id="text_15">
      <!-- 200 -->
      <g transform="translate(117.9125 248.227996)scale(0.1 -0.1)">
       <use xlink:href="#DejaVuSans-32"/>
       <use x="63.623047" xlink:href="#DejaVuSans-30"/>
       <use x="127.246094" xlink:href="#DejaVuSans-30"/>
      </g>
     </g>
    </g>
    <g id="ytick_4">
     <g id="line2d_18">
      <path clip-path="url(#p5f310b97af)" d="M 144 206.443165 
L 406.588235 206.443165 
" style="fill:none;stroke:#b0b0b0;stroke-dasharray:2.96,1.28;stroke-dashoffset:0;stroke-width:0.8;"/>
     </g>
     <g id="line2d_19">
      <g>
       <use style="stroke:#000000;stroke-width:0.8;" x="144" xlink:href="#m050195f13d" y="206.443165"/>
      </g>
     </g>
     <g id="text_16">
      <!-- 300 -->
      <g transform="translate(117.9125 210.242384)scale(0.1 -0.1)">
       <use xlink:href="#DejaVuSans-33"/>
       <use x="63.623047" xlink:href="#DejaVuSans-30"/>
       <use x="127.246094" xlink:href="#DejaVuSans-30"/>
      </g>
     </g>
    </g>
    <g id="ytick_5">
     <g id="line2d_20">
      <path clip-path="url(#p5f310b97af)" d="M 144 168.457554 
L 406.588235 168.457554 
" style="fill:none;stroke:#b0b0b0;stroke-dasharray:2.96,1.28;stroke-dashoffset:0;stroke-width:0.8;"/>
     </g>
     <g id="line2d_21">
      <g>
       <use style="stroke:#000000;stroke-width:0.8;" x="144" xlink:href="#m050195f13d" y="168.457554"/>
      </g>
     </g>
     <g id="text_17">
      <!-- 400 -->
      <g transform="translate(117.9125 172.256773)scale(0.1 -0.1)">
       <use xlink:href="#DejaVuSans-34"/>
       <use x="63.623047" xlink:href="#DejaVuSans-30"/>
       <use x="127.246094" xlink:href="#DejaVuSans-30"/>
      </g>
     </g>
    </g>
    <g id="ytick_6">
     <g id="line2d_22">
      <path clip-path="url(#p5f310b97af)" d="M 144 130.471942 
L 406.588235 130.471942 
" style="fill:none;stroke:#b0b0b0;stroke-dasharray:2.96,1.28;stroke-dashoffset:0;stroke-width:0.8;"/>
     </g>
     <g id="line2d_23">
      <g>
       <use style="stroke:#000000;stroke-width:0.8;" x="144" xlink:href="#m050195f13d" y="130.471942"/>
      </g>
     </g>
     <g id="text_18">
      <!-- 500 -->
      <g transform="translate(117.9125 134.271161)scale(0.1 -0.1)">
       <use xlink:href="#DejaVuSans-35"/>
       <use x="63.623047" xlink:href="#DejaVuSans-30"/>
       <use x="127.246094" xlink:href="#DejaVuSans-30"/>
      </g>
     </g>
    </g>
    <g id="ytick_7">
     <g id="line2d_24">
      <path clip-path="url(#p5f310b97af)" d="M 144 92.486331 
L 406.588235 92.486331 
" style="fill:none;stroke:#b0b0b0;stroke-dasharray:2.96,1.28;stroke-dashoffset:0;stroke-width:0.8;"/>
     </g>
     <g id="line2d_25">
      <g>
       <use style="stroke:#000000;stroke-width:0.8;" x="144" xlink:href="#m050195f13d" y="92.486331"/>
      </g>
     </g>
     <g id="text_19">
      <!-- 600 -->
      <g transform="translate(117.9125 96.28555)scale(0.1 -0.1)">
       <use xlink:href="#DejaVuSans-36"/>
       <use x="63.623047" xlink:href="#DejaVuSans-30"/>
       <use x="127.246094" xlink:href="#DejaVuSans-30"/>
      </g>
     </g>
    </g>
    <g id="ytick_8">
     <g id="line2d_26">
      <path clip-path="url(#p5f310b97af)" d="M 144 54.500719 
L 406.588235 54.500719 
" style="fill:none;stroke:#b0b0b0;stroke-dasharray:2.96,1.28;stroke-dashoffset:0;stroke-width:0.8;"/>
     </g>
     <g id="line2d_27">
      <g>
       <use style="stroke:#000000;stroke-width:0.8;" x="144" xlink:href="#m050195f13d" y="54.500719"/>
      </g>
     </g>
     <g id="text_20">
      <!-- 700 -->
      <g transform="translate(117.9125 58.299938)scale(0.1 -0.1)">
       <use xlink:href="#DejaVuSans-37"/>
       <use x="63.623047" xlink:href="#DejaVuSans-30"/>
       <use x="127.246094" xlink:href="#DejaVuSans-30"/>
      </g>
     </g>
    </g>
    <g id="text_21">
     <!-- Exiting samples -->
     <defs>
      <path d="M 9.8125 72.90625 
L 55.90625 72.90625 
L 55.90625 64.59375 
L 19.671875 64.59375 
L 19.671875 43.015625 
L 54.390625 43.015625 
L 54.390625 34.71875 
L 19.671875 34.71875 
L 19.671875 8.296875 
L 56.78125 8.296875 
L 56.78125 0 
L 9.8125 0 
z
" id="DejaVuSans-45"/>
      <path d="M 54.890625 54.6875 
L 35.109375 28.078125 
L 55.90625 0 
L 45.3125 0 
L 29.390625 21.484375 
L 13.484375 0 
L 2.875 0 
L 24.125 28.609375 
L 4.6875 54.6875 
L 15.28125 54.6875 
L 29.78125 35.203125 
L 44.28125 54.6875 
z
" id="DejaVuSans-78"/>
      <path d="M 9.421875 54.6875 
L 18.40625 54.6875 
L 18.40625 0 
L 9.421875 0 
z
M 9.421875 75.984375 
L 18.40625 75.984375 
L 18.40625 64.59375 
L 9.421875 64.59375 
z
" id="DejaVuSans-69"/>
      <path d="M 18.3125 70.21875 
L 18.3125 54.6875 
L 36.8125 54.6875 
L 36.8125 47.703125 
L 18.3125 47.703125 
L 18.3125 18.015625 
Q 18.3125 11.328125 20.140625 9.421875 
Q 21.96875 7.515625 27.59375 7.515625 
L 36.8125 7.515625 
L 36.8125 0 
L 27.59375 0 
Q 17.1875 0 13.234375 3.875 
Q 9.28125 7.765625 9.28125 18.015625 
L 9.28125 47.703125 
L 2.6875 47.703125 
L 2.6875 54.6875 
L 9.28125 54.6875 
L 9.28125 70.21875 
z
" id="DejaVuSans-74"/>
      <path d="M 54.890625 33.015625 
L 54.890625 0 
L 45.90625 0 
L 45.90625 32.71875 
Q 45.90625 40.484375 42.875 44.328125 
Q 39.84375 48.1875 33.796875 48.1875 
Q 26.515625 48.1875 22.3125 43.546875 
Q 18.109375 38.921875 18.109375 30.90625 
L 18.109375 0 
L 9.078125 0 
L 9.078125 54.6875 
L 18.109375 54.6875 
L 18.109375 46.1875 
Q 21.34375 51.125 25.703125 53.5625 
Q 30.078125 56 35.796875 56 
Q 45.21875 56 50.046875 50.171875 
Q 54.890625 44.34375 54.890625 33.015625 
z
" id="DejaVuSans-6e"/>
      <path d="M 45.40625 27.984375 
Q 45.40625 37.75 41.375 43.109375 
Q 37.359375 48.484375 30.078125 48.484375 
Q 22.859375 48.484375 18.828125 43.109375 
Q 14.796875 37.75 14.796875 27.984375 
Q 14.796875 18.265625 18.828125 12.890625 
Q 22.859375 7.515625 30.078125 7.515625 
Q 37.359375 7.515625 41.375 12.890625 
Q 45.40625 18.265625 45.40625 27.984375 
z
M 54.390625 6.78125 
Q 54.390625 -7.171875 48.1875 -13.984375 
Q 42 -20.796875 29.203125 -20.796875 
Q 24.46875 -20.796875 20.265625 -20.09375 
Q 16.0625 -19.390625 12.109375 -17.921875 
L 12.109375 -9.1875 
Q 16.0625 -11.328125 19.921875 -12.34375 
Q 23.78125 -13.375 27.78125 -13.375 
Q 36.625 -13.375 41.015625 -8.765625 
Q 45.40625 -4.15625 45.40625 5.171875 
L 45.40625 9.625 
Q 42.625 4.78125 38.28125 2.390625 
Q 33.9375 0 27.875 0 
Q 17.828125 0 11.671875 7.65625 
Q 5.515625 15.328125 5.515625 27.984375 
Q 5.515625 40.671875 11.671875 48.328125 
Q 17.828125 56 27.875 56 
Q 33.9375 56 38.28125 53.609375 
Q 42.625 51.21875 45.40625 46.390625 
L 45.40625 54.6875 
L 54.390625 54.6875 
z
" id="DejaVuSans-67"/>
      <path id="DejaVuSans-20"/>
      <path d="M 52 44.1875 
Q 55.375 50.25 60.0625 53.125 
Q 64.75 56 71.09375 56 
Q 79.640625 56 84.28125 50.015625 
Q 88.921875 44.046875 88.921875 33.015625 
L 88.921875 0 
L 79.890625 0 
L 79.890625 32.71875 
Q 79.890625 40.578125 77.09375 44.375 
Q 74.3125 48.1875 68.609375 48.1875 
Q 61.625 48.1875 57.5625 43.546875 
Q 53.515625 38.921875 53.515625 30.90625 
L 53.515625 0 
L 44.484375 0 
L 44.484375 32.71875 
Q 44.484375 40.625 41.703125 44.40625 
Q 38.921875 48.1875 33.109375 48.1875 
Q 26.21875 48.1875 22.15625 43.53125 
Q 18.109375 38.875 18.109375 30.90625 
L 18.109375 0 
L 9.078125 0 
L 9.078125 54.6875 
L 18.109375 54.6875 
L 18.109375 46.1875 
Q 21.1875 51.21875 25.484375 53.609375 
Q 29.78125 56 35.6875 56 
Q 41.65625 56 45.828125 52.96875 
Q 50 49.953125 52 44.1875 
z
" id="DejaVuSans-6d"/>
      <path d="M 18.109375 8.203125 
L 18.109375 -20.796875 
L 9.078125 -20.796875 
L 9.078125 54.6875 
L 18.109375 54.6875 
L 18.109375 46.390625 
Q 20.953125 51.265625 25.265625 53.625 
Q 29.59375 56 35.59375 56 
Q 45.5625 56 51.78125 48.09375 
Q 58.015625 40.1875 58.015625 27.296875 
Q 58.015625 14.40625 51.78125 6.484375 
Q 45.5625 -1.421875 35.59375 -1.421875 
Q 29.59375 -1.421875 25.265625 0.953125 
Q 20.953125 3.328125 18.109375 8.203125 
z
M 48.6875 27.296875 
Q 48.6875 37.203125 44.609375 42.84375 
Q 40.53125 48.484375 33.40625 48.484375 
Q 26.265625 48.484375 22.1875 42.84375 
Q 18.109375 37.203125 18.109375 27.296875 
Q 18.109375 17.390625 22.1875 11.75 
Q 26.265625 6.109375 33.40625 6.109375 
Q 40.53125 6.109375 44.609375 11.75 
Q 48.6875 17.390625 48.6875 27.296875 
z
" id="DejaVuSans-70"/>
      <path d="M 9.421875 75.984375 
L 18.40625 75.984375 
L 18.40625 0 
L 9.421875 0 
z
" id="DejaVuSans-6c"/>
     </defs>
     <g transform="translate(111.832812 221.372656)rotate(-90)scale(0.1 -0.1)">
      <use xlink:href="#DejaVuSans-45"/>
      <use x="63.183594" xlink:href="#DejaVuSans-78"/>
      <use x="122.363281" xlink:href="#DejaVuSans-69"/>
      <use x="150.146484" xlink:href="#DejaVuSans-74"/>
      <use x="189.355469" xlink:href="#DejaVuSans-69"/>
      <use x="217.138672" xlink:href="#DejaVuSans-6e"/>
      <use x="280.517578" xlink:href="#DejaVuSans-67"/>
      <use x="343.994141" xlink:href="#DejaVuSans-20"/>
      <use x="375.78125" xlink:href="#DejaVuSans-73"/>
      <use x="427.880859" xlink:href="#DejaVuSans-61"/>
      <use x="489.160156" xlink:href="#DejaVuSans-6d"/>
      <use x="586.572266" xlink:href="#DejaVuSans-70"/>
      <use x="650.048828" xlink:href="#DejaVuSans-6c"/>
      <use x="677.832031" xlink:href="#DejaVuSans-65"/>
      <use x="739.355469" xlink:href="#DejaVuSans-73"/>
     </g>
    </g>
   </g>
   <g id="patch_47">
    <path d="M 144 320.4 
L 144 43.2 
" style="fill:none;stroke:#000000;stroke-linecap:square;stroke-linejoin:miter;stroke-width:0.8;"/>
   </g>
   <g id="patch_48">
    <path d="M 406.588235 320.4 
L 406.588235 43.2 
" style="fill:none;stroke:#000000;stroke-linecap:square;stroke-linejoin:miter;stroke-width:0.8;"/>
   </g>
   <g id="patch_49">
    <path d="M 144 320.4 
L 406.588235 320.4 
" style="fill:none;stroke:#000000;stroke-linecap:square;stroke-linejoin:miter;stroke-width:0.8;"/>
   </g>
   <g id="patch_50">
    <path d="M 144 43.2 
L 406.588235 43.2 
" style="fill:none;stroke:#000000;stroke-linecap:square;stroke-linejoin:miter;stroke-width:0.8;"/>
   </g>
   <g id="text_22">
    <!-- SNIPS -->
    <defs>
     <path d="M 53.515625 70.515625 
L 53.515625 60.890625 
Q 47.90625 63.578125 42.921875 64.890625 
Q 37.9375 66.21875 33.296875 66.21875 
Q 25.25 66.21875 20.875 63.09375 
Q 16.5 59.96875 16.5 54.203125 
Q 16.5 49.359375 19.40625 46.890625 
Q 22.3125 44.4375 30.421875 42.921875 
L 36.375 41.703125 
Q 47.40625 39.59375 52.65625 34.296875 
Q 57.90625 29 57.90625 20.125 
Q 57.90625 9.515625 50.796875 4.046875 
Q 43.703125 -1.421875 29.984375 -1.421875 
Q 24.8125 -1.421875 18.96875 -0.25 
Q 13.140625 0.921875 6.890625 3.21875 
L 6.890625 13.375 
Q 12.890625 10.015625 18.65625 8.296875 
Q 24.421875 6.59375 29.984375 6.59375 
Q 38.421875 6.59375 43.015625 9.90625 
Q 47.609375 13.234375 47.609375 19.390625 
Q 47.609375 24.75 44.3125 27.78125 
Q 41.015625 30.8125 33.5 32.328125 
L 27.484375 33.5 
Q 16.453125 35.6875 11.515625 40.375 
Q 6.59375 45.0625 6.59375 53.421875 
Q 6.59375 63.09375 13.40625 68.65625 
Q 20.21875 74.21875 32.171875 74.21875 
Q 37.3125 74.21875 42.625 73.28125 
Q 47.953125 72.359375 53.515625 70.515625 
z
" id="DejaVuSans-53"/>
     <path d="M 9.8125 72.90625 
L 23.09375 72.90625 
L 55.421875 11.921875 
L 55.421875 72.90625 
L 64.984375 72.90625 
L 64.984375 0 
L 51.703125 0 
L 19.390625 60.984375 
L 19.390625 0 
L 9.8125 0 
z
" id="DejaVuSans-4e"/>
     <path d="M 9.8125 72.90625 
L 19.671875 72.90625 
L 19.671875 0 
L 9.8125 0 
z
" id="DejaVuSans-49"/>
     <path d="M 19.671875 64.796875 
L 19.671875 37.40625 
L 32.078125 37.40625 
Q 38.96875 37.40625 42.71875 40.96875 
Q 46.484375 44.53125 46.484375 51.125 
Q 46.484375 57.671875 42.71875 61.234375 
Q 38.96875 64.796875 32.078125 64.796875 
z
M 9.8125 72.90625 
L 32.078125 72.90625 
Q 44.34375 72.90625 50.609375 67.359375 
Q 56.890625 61.8125 56.890625 51.125 
Q 56.890625 40.328125 50.609375 34.8125 
Q 44.34375 29.296875 32.078125 29.296875 
L 19.671875 29.296875 
L 19.671875 0 
L 9.8125 0 
z
" id="DejaVuSans-50"/>
    </defs>
    <g transform="translate(257.79943 37.2)scale(0.12 -0.12)">
     <use xlink:href="#DejaVuSans-53"/>
     <use x="63.476562" xlink:href="#DejaVuSans-4e"/>
     <use x="138.28125" xlink:href="#DejaVuSans-49"/>
     <use x="167.773438" xlink:href="#DejaVuSans-50"/>
     <use x="228.076172" xlink:href="#DejaVuSans-53"/>
    </g>
   </g>
   <g id="legend_1">
    <g id="patch_51">
     <path d="M 340.662454 89.89875 
L 401.688235 89.89875 
Q 403.088235 89.89875 403.088235 88.49875 
L 403.088235 48.1 
Q 403.088235 46.7 401.688235 46.7 
L 340.662454 46.7 
Q 339.262454 46.7 339.262454 48.1 
L 339.262454 88.49875 
Q 339.262454 89.89875 340.662454 89.89875 
z
" style="fill:#ffffff;opacity:0.8;stroke:#cccccc;stroke-linejoin:miter;"/>
    </g>
    <g id="patch_52">
     <path d="M 342.062454 54.818906 
L 356.062454 54.818906 
L 356.062454 49.918906 
L 342.062454 49.918906 
z
" style="fill:#427da6;"/>
    </g>
    <g id="text_23">
     <!-- DeeBERT -->
     <defs>
      <path d="M 19.671875 64.796875 
L 19.671875 8.109375 
L 31.59375 8.109375 
Q 46.6875 8.109375 53.6875 14.9375 
Q 60.6875 21.78125 60.6875 36.53125 
Q 60.6875 51.171875 53.6875 57.984375 
Q 46.6875 64.796875 31.59375 64.796875 
z
M 9.8125 72.90625 
L 30.078125 72.90625 
Q 51.265625 72.90625 61.171875 64.09375 
Q 71.09375 55.28125 71.09375 36.53125 
Q 71.09375 17.671875 61.125 8.828125 
Q 51.171875 0 30.078125 0 
L 9.8125 0 
z
" id="DejaVuSans-44"/>
      <path d="M 19.671875 34.8125 
L 19.671875 8.109375 
L 35.5 8.109375 
Q 43.453125 8.109375 47.28125 11.40625 
Q 51.125 14.703125 51.125 21.484375 
Q 51.125 28.328125 47.28125 31.5625 
Q 43.453125 34.8125 35.5 34.8125 
z
M 19.671875 64.796875 
L 19.671875 42.828125 
L 34.28125 42.828125 
Q 41.5 42.828125 45.03125 45.53125 
Q 48.578125 48.25 48.578125 53.8125 
Q 48.578125 59.328125 45.03125 62.0625 
Q 41.5 64.796875 34.28125 64.796875 
z
M 9.8125 72.90625 
L 35.015625 72.90625 
Q 46.296875 72.90625 52.390625 68.21875 
Q 58.5 63.53125 58.5 54.890625 
Q 58.5 48.1875 55.375 44.234375 
Q 52.25 40.28125 46.1875 39.3125 
Q 53.46875 37.75 57.5 32.78125 
Q 61.53125 27.828125 61.53125 20.40625 
Q 61.53125 10.640625 54.890625 5.3125 
Q 48.25 0 35.984375 0 
L 9.8125 0 
z
" id="DejaVuSans-42"/>
      <path d="M 44.390625 34.1875 
Q 47.5625 33.109375 50.5625 29.59375 
Q 53.5625 26.078125 56.59375 19.921875 
L 66.609375 0 
L 56 0 
L 46.6875 18.703125 
Q 43.0625 26.03125 39.671875 28.421875 
Q 36.28125 30.8125 30.421875 30.8125 
L 19.671875 30.8125 
L 19.671875 0 
L 9.8125 0 
L 9.8125 72.90625 
L 32.078125 72.90625 
Q 44.578125 72.90625 50.734375 67.671875 
Q 56.890625 62.453125 56.890625 51.90625 
Q 56.890625 45.015625 53.6875 40.46875 
Q 50.484375 35.9375 44.390625 34.1875 
z
M 19.671875 64.796875 
L 19.671875 38.921875 
L 32.078125 38.921875 
Q 39.203125 38.921875 42.84375 42.21875 
Q 46.484375 45.515625 46.484375 51.90625 
Q 46.484375 58.296875 42.84375 61.546875 
Q 39.203125 64.796875 32.078125 64.796875 
z
" id="DejaVuSans-52"/>
      <path d="M -0.296875 72.90625 
L 61.375 72.90625 
L 61.375 64.59375 
L 35.5 64.59375 
L 35.5 0 
L 25.59375 0 
L 25.59375 64.59375 
L -0.296875 64.59375 
z
" id="DejaVuSans-54"/>
     </defs>
     <g transform="translate(361.662454 54.818906)scale(0.07 -0.07)">
      <use xlink:href="#DejaVuSans-44"/>
      <use x="77.001953" xlink:href="#DejaVuSans-65"/>
      <use x="138.525391" xlink:href="#DejaVuSans-65"/>
      <use x="200.048828" xlink:href="#DejaVuSans-42"/>
      <use x="268.652344" xlink:href="#DejaVuSans-45"/>
      <use x="331.835938" xlink:href="#DejaVuSans-52"/>
      <use x="401.208984" xlink:href="#DejaVuSans-54"/>
     </g>
    </g>
    <g id="patch_53">
     <path d="M 342.062454 65.093594 
L 356.062454 65.093594 
L 356.062454 60.193594 
L 342.062454 60.193594 
z
" style="fill:#ffa500;"/>
    </g>
    <g id="text_24">
     <!-- RightTool -->
     <defs>
      <path d="M 54.890625 33.015625 
L 54.890625 0 
L 45.90625 0 
L 45.90625 32.71875 
Q 45.90625 40.484375 42.875 44.328125 
Q 39.84375 48.1875 33.796875 48.1875 
Q 26.515625 48.1875 22.3125 43.546875 
Q 18.109375 38.921875 18.109375 30.90625 
L 18.109375 0 
L 9.078125 0 
L 9.078125 75.984375 
L 18.109375 75.984375 
L 18.109375 46.1875 
Q 21.34375 51.125 25.703125 53.5625 
Q 30.078125 56 35.796875 56 
Q 45.21875 56 50.046875 50.171875 
Q 54.890625 44.34375 54.890625 33.015625 
z
" id="DejaVuSans-68"/>
      <path d="M 30.609375 48.390625 
Q 23.390625 48.390625 19.1875 42.75 
Q 14.984375 37.109375 14.984375 27.296875 
Q 14.984375 17.484375 19.15625 11.84375 
Q 23.34375 6.203125 30.609375 6.203125 
Q 37.796875 6.203125 41.984375 11.859375 
Q 46.1875 17.53125 46.1875 27.296875 
Q 46.1875 37.015625 41.984375 42.703125 
Q 37.796875 48.390625 30.609375 48.390625 
z
M 30.609375 56 
Q 42.328125 56 49.015625 48.375 
Q 55.71875 40.765625 55.71875 27.296875 
Q 55.71875 13.875 49.015625 6.21875 
Q 42.328125 -1.421875 30.609375 -1.421875 
Q 18.84375 -1.421875 12.171875 6.21875 
Q 5.515625 13.875 5.515625 27.296875 
Q 5.515625 40.765625 12.171875 48.375 
Q 18.84375 56 30.609375 56 
z
" id="DejaVuSans-6f"/>
     </defs>
     <g transform="translate(361.662454 65.093594)scale(0.07 -0.07)">
      <use xlink:href="#DejaVuSans-52"/>
      <use x="69.482422" xlink:href="#DejaVuSans-69"/>
      <use x="97.265625" xlink:href="#DejaVuSans-67"/>
      <use x="160.742188" xlink:href="#DejaVuSans-68"/>
      <use x="224.121094" xlink:href="#DejaVuSans-74"/>
      <use x="263.330078" xlink:href="#DejaVuSans-54"/>
      <use x="324.148438" xlink:href="#DejaVuSans-6f"/>
      <use x="385.330078" xlink:href="#DejaVuSans-6f"/>
      <use x="446.511719" xlink:href="#DejaVuSans-6c"/>
     </g>
    </g>
    <g id="patch_54">
     <path d="M 342.062454 75.368281 
L 356.062454 75.368281 
L 356.062454 70.468281 
L 342.062454 70.468281 
z
" style="fill:#008000;"/>
    </g>
    <g id="text_25">
     <!-- RomeBERT -->
     <g transform="translate(361.662454 75.368281)scale(0.07 -0.07)">
      <use xlink:href="#DejaVuSans-52"/>
      <use x="69.419922" xlink:href="#DejaVuSans-6f"/>
      <use x="130.601562" xlink:href="#DejaVuSans-6d"/>
      <use x="228.013672" xlink:href="#DejaVuSans-65"/>
      <use x="289.537109" xlink:href="#DejaVuSans-42"/>
      <use x="358.140625" xlink:href="#DejaVuSans-45"/>
      <use x="421.324219" xlink:href="#DejaVuSans-52"/>
      <use x="490.697266" xlink:href="#DejaVuSans-54"/>
     </g>
    </g>
    <g id="patch_55">
     <path d="M 342.062454 85.642969 
L 356.062454 85.642969 
L 356.062454 80.742969 
L 342.062454 80.742969 
z
" style="fill:#ff0000;"/>
    </g>
    <g id="text_26">
     <!-- OdeBERT -->
     <defs>
      <path d="M 39.40625 66.21875 
Q 28.65625 66.21875 22.328125 58.203125 
Q 16.015625 50.203125 16.015625 36.375 
Q 16.015625 22.609375 22.328125 14.59375 
Q 28.65625 6.59375 39.40625 6.59375 
Q 50.140625 6.59375 56.421875 14.59375 
Q 62.703125 22.609375 62.703125 36.375 
Q 62.703125 50.203125 56.421875 58.203125 
Q 50.140625 66.21875 39.40625 66.21875 
z
M 39.40625 74.21875 
Q 54.734375 74.21875 63.90625 63.9375 
Q 73.09375 53.65625 73.09375 36.375 
Q 73.09375 19.140625 63.90625 8.859375 
Q 54.734375 -1.421875 39.40625 -1.421875 
Q 24.03125 -1.421875 14.8125 8.828125 
Q 5.609375 19.09375 5.609375 36.375 
Q 5.609375 53.65625 14.8125 63.9375 
Q 24.03125 74.21875 39.40625 74.21875 
z
" id="DejaVuSans-4f"/>
      <path d="M 45.40625 46.390625 
L 45.40625 75.984375 
L 54.390625 75.984375 
L 54.390625 0 
L 45.40625 0 
L 45.40625 8.203125 
Q 42.578125 3.328125 38.25 0.953125 
Q 33.9375 -1.421875 27.875 -1.421875 
Q 17.96875 -1.421875 11.734375 6.484375 
Q 5.515625 14.40625 5.515625 27.296875 
Q 5.515625 40.1875 11.734375 48.09375 
Q 17.96875 56 27.875 56 
Q 33.9375 56 38.25 53.625 
Q 42.578125 51.265625 45.40625 46.390625 
z
M 14.796875 27.296875 
Q 14.796875 17.390625 18.875 11.75 
Q 22.953125 6.109375 30.078125 6.109375 
Q 37.203125 6.109375 41.296875 11.75 
Q 45.40625 17.390625 45.40625 27.296875 
Q 45.40625 37.203125 41.296875 42.84375 
Q 37.203125 48.484375 30.078125 48.484375 
Q 22.953125 48.484375 18.875 42.84375 
Q 14.796875 37.203125 14.796875 27.296875 
z
" id="DejaVuSans-64"/>
     </defs>
     <g transform="translate(361.662454 85.642969)scale(0.07 -0.07)">
      <use xlink:href="#DejaVuSans-4f"/>
      <use x="78.710938" xlink:href="#DejaVuSans-64"/>
      <use x="142.1875" xlink:href="#DejaVuSans-65"/>
      <use x="203.710938" xlink:href="#DejaVuSans-42"/>
      <use x="272.314453" xlink:href="#DejaVuSans-45"/>
      <use x="335.498047" xlink:href="#DejaVuSans-52"/>
      <use x="404.871094" xlink:href="#DejaVuSans-54"/>
     </g>
    </g>
   </g>
  </g>
  <g id="axes_2">
   <g id="patch_56">
    <path d="M 459.105882 320.4 
L 721.694118 320.4 
L 721.694118 43.2 
L 459.105882 43.2 
z
" style="fill:#ffffff;"/>
   </g>
   <g id="patch_57">
    <path clip-path="url(#p677e8cbd3f)" d="M 471.041711 320.4 
L 475.462389 320.4 
L 475.462389 219.611823 
L 471.041711 219.611823 
z
" style="fill:#427da6;"/>
   </g>
   <g id="patch_58">
    <path clip-path="url(#p677e8cbd3f)" d="M 493.145098 320.4 
L 497.565775 320.4 
L 497.565775 308.04532 
L 493.145098 308.04532 
z
" style="fill:#427da6;"/>
   </g>
   <g id="patch_59">
    <path clip-path="url(#p677e8cbd3f)" d="M 515.248485 320.4 
L 519.669162 320.4 
L 519.669162 320.4 
L 515.248485 320.4 
z
" style="fill:#427da6;"/>
   </g>
   <g id="patch_60">
    <path clip-path="url(#p677e8cbd3f)" d="M 537.351872 320.4 
L 541.772549 320.4 
L 541.772549 318.449261 
L 537.351872 318.449261 
z
" style="fill:#427da6;"/>
   </g>
   <g id="patch_61">
    <path clip-path="url(#p677e8cbd3f)" d="M 559.455258 320.4 
L 563.875936 320.4 
L 563.875936 320.4 
L 559.455258 320.4 
z
" style="fill:#427da6;"/>
   </g>
   <g id="patch_62">
    <path clip-path="url(#p677e8cbd3f)" d="M 581.558645 320.4 
L 585.979323 320.4 
L 585.979323 320.4 
L 581.558645 320.4 
z
" style="fill:#427da6;"/>
   </g>
   <g id="patch_63">
    <path clip-path="url(#p677e8cbd3f)" d="M 603.662032 320.4 
L 608.082709 320.4 
L 608.082709 320.4 
L 603.662032 320.4 
z
" style="fill:#427da6;"/>
   </g>
   <g id="patch_64">
    <path clip-path="url(#p677e8cbd3f)" d="M 625.765419 320.4 
L 630.186096 320.4 
L 630.186096 320.4 
L 625.765419 320.4 
z
" style="fill:#427da6;"/>
   </g>
   <g id="patch_65">
    <path clip-path="url(#p677e8cbd3f)" d="M 647.868806 320.4 
L 652.289483 320.4 
L 652.289483 320.4 
L 647.868806 320.4 
z
" style="fill:#427da6;"/>
   </g>
   <g id="patch_66">
    <path clip-path="url(#p677e8cbd3f)" d="M 669.972193 320.4 
L 674.39287 320.4 
L 674.39287 315.848276 
L 669.972193 315.848276 
z
" style="fill:#427da6;"/>
   </g>
   <g id="patch_67">
    <path clip-path="url(#p677e8cbd3f)" d="M 692.075579 320.4 
L 696.496257 320.4 
L 696.496257 229.365517 
L 692.075579 229.365517 
z
" style="fill:#427da6;"/>
   </g>
   <g id="patch_68">
    <path clip-path="url(#p677e8cbd3f)" d="M 475.462389 320.4 
L 479.883066 320.4 
L 479.883066 200.104433 
L 475.462389 200.104433 
z
" style="fill:#ffa500;"/>
   </g>
   <g id="patch_69">
    <path clip-path="url(#p677e8cbd3f)" d="M 497.565775 320.4 
L 501.986453 320.4 
L 501.986453 172.794089 
L 497.565775 172.794089 
z
" style="fill:#ffa500;"/>
   </g>
   <g id="patch_70">
    <path clip-path="url(#p677e8cbd3f)" d="M 519.669162 320.4 
L 524.08984 320.4 
L 524.08984 252.124138 
L 519.669162 252.124138 
z
" style="fill:#ffa500;"/>
   </g>
   <g id="patch_71">
    <path clip-path="url(#p677e8cbd3f)" d="M 541.772549 320.4 
L 546.193226 320.4 
L 546.193226 278.784236 
L 541.772549 278.784236 
z
" style="fill:#ffa500;"/>
   </g>
   <g id="patch_72">
    <path clip-path="url(#p677e8cbd3f)" d="M 563.875936 320.4 
L 568.296613 320.4 
L 568.296613 293.089655 
L 563.875936 293.089655 
z
" style="fill:#ffa500;"/>
   </g>
   <g id="patch_73">
    <path clip-path="url(#p677e8cbd3f)" d="M 585.979323 320.4 
L 590.4 320.4 
L 590.4 313.897537 
L 585.979323 313.897537 
z
" style="fill:#ffa500;"/>
   </g>
   <g id="patch_74">
    <path clip-path="url(#p677e8cbd3f)" d="M 608.082709 320.4 
L 612.503387 320.4 
L 612.503387 313.247291 
L 608.082709 313.247291 
z
" style="fill:#ffa500;"/>
   </g>
   <g id="patch_75">
    <path clip-path="url(#p677e8cbd3f)" d="M 630.186096 320.4 
L 634.606774 320.4 
L 634.606774 317.148768 
L 630.186096 317.148768 
z
" style="fill:#ffa500;"/>
   </g>
   <g id="patch_76">
    <path clip-path="url(#p677e8cbd3f)" d="M 652.289483 320.4 
L 656.71016 320.4 
L 656.71016 316.498522 
L 652.289483 316.498522 
z
" style="fill:#ffa500;"/>
   </g>
   <g id="patch_77">
    <path clip-path="url(#p677e8cbd3f)" d="M 674.39287 320.4 
L 678.813547 320.4 
L 678.813547 319.099507 
L 674.39287 319.099507 
z
" style="fill:#ffa500;"/>
   </g>
   <g id="patch_78">
    <path clip-path="url(#p677e8cbd3f)" d="M 696.496257 320.4 
L 700.916934 320.4 
L 700.916934 319.749754 
L 696.496257 319.749754 
z
" style="fill:#ffa500;"/>
   </g>
   <g id="patch_79">
    <path clip-path="url(#p677e8cbd3f)" d="M 479.883066 320.4 
L 484.303743 320.4 
L 484.303743 135.079803 
L 479.883066 135.079803 
z
" style="fill:#008000;"/>
   </g>
   <g id="patch_80">
    <path clip-path="url(#p677e8cbd3f)" d="M 501.986453 320.4 
L 506.40713 320.4 
L 506.40713 268.380296 
L 501.986453 268.380296 
z
" style="fill:#008000;"/>
   </g>
   <g id="patch_81">
    <path clip-path="url(#p677e8cbd3f)" d="M 524.08984 320.4 
L 528.510517 320.4 
L 528.510517 308.695567 
L 524.08984 308.695567 
z
" style="fill:#008000;"/>
   </g>
   <g id="patch_82">
    <path clip-path="url(#p677e8cbd3f)" d="M 546.193226 320.4 
L 550.613904 320.4 
L 550.613904 312.597044 
L 546.193226 312.597044 
z
" style="fill:#008000;"/>
   </g>
   <g id="patch_83">
    <path clip-path="url(#p677e8cbd3f)" d="M 568.296613 320.4 
L 572.717291 320.4 
L 572.717291 313.897537 
L 568.296613 313.897537 
z
" style="fill:#008000;"/>
   </g>
   <g id="patch_84">
    <path clip-path="url(#p677e8cbd3f)" d="M 590.4 320.4 
L 594.820677 320.4 
L 594.820677 313.897537 
L 590.4 313.897537 
z
" style="fill:#008000;"/>
   </g>
   <g id="patch_85">
    <path clip-path="url(#p677e8cbd3f)" d="M 612.503387 320.4 
L 616.924064 320.4 
L 616.924064 317.148768 
L 612.503387 317.148768 
z
" style="fill:#008000;"/>
   </g>
   <g id="patch_86">
    <path clip-path="url(#p677e8cbd3f)" d="M 634.606774 320.4 
L 639.027451 320.4 
L 639.027451 319.099507 
L 634.606774 319.099507 
z
" style="fill:#008000;"/>
   </g>
   <g id="patch_87">
    <path clip-path="url(#p677e8cbd3f)" d="M 656.71016 320.4 
L 661.130838 320.4 
L 661.130838 319.749754 
L 656.71016 319.749754 
z
" style="fill:#008000;"/>
   </g>
   <g id="patch_88">
    <path clip-path="url(#p677e8cbd3f)" d="M 678.813547 320.4 
L 683.234225 320.4 
L 683.234225 318.449261 
L 678.813547 318.449261 
z
" style="fill:#008000;"/>
   </g>
   <g id="patch_89">
    <path clip-path="url(#p677e8cbd3f)" d="M 700.916934 320.4 
L 705.337611 320.4 
L 705.337611 319.099507 
L 700.916934 319.099507 
z
" style="fill:#008000;"/>
   </g>
   <g id="patch_90">
    <path clip-path="url(#p677e8cbd3f)" d="M 484.303743 320.4 
L 488.724421 320.4 
L 488.724421 56.4 
L 484.303743 56.4 
z
" style="fill:#ff0000;"/>
   </g>
   <g id="patch_91">
    <path clip-path="url(#p677e8cbd3f)" d="M 506.40713 320.4 
L 510.827807 320.4 
L 510.827807 241.069951 
L 506.40713 241.069951 
z
" style="fill:#ff0000;"/>
   </g>
   <g id="patch_92">
    <path clip-path="url(#p677e8cbd3f)" d="M 528.510517 320.4 
L 532.931194 320.4 
L 532.931194 293.739901 
L 528.510517 293.739901 
z
" style="fill:#ff0000;"/>
   </g>
   <g id="patch_93">
    <path clip-path="url(#p677e8cbd3f)" d="M 550.613904 320.4 
L 555.034581 320.4 
L 555.034581 295.040394 
L 550.613904 295.040394 
z
" style="fill:#ff0000;"/>
   </g>
   <g id="patch_94">
    <path clip-path="url(#p677e8cbd3f)" d="M 572.717291 320.4 
L 577.137968 320.4 
L 577.137968 312.597044 
L 572.717291 312.597044 
z
" style="fill:#ff0000;"/>
   </g>
   <g id="patch_95">
    <path clip-path="url(#p677e8cbd3f)" d="M 594.820677 320.4 
L 599.241355 320.4 
L 599.241355 313.897537 
L 594.820677 313.897537 
z
" style="fill:#ff0000;"/>
   </g>
   <g id="patch_96">
    <path clip-path="url(#p677e8cbd3f)" d="M 616.924064 320.4 
L 621.344742 320.4 
L 621.344742 317.799015 
L 616.924064 317.799015 
z
" style="fill:#ff0000;"/>
   </g>
   <g id="patch_97">
    <path clip-path="url(#p677e8cbd3f)" d="M 639.027451 320.4 
L 643.448128 320.4 
L 643.448128 314.547783 
L 639.027451 314.547783 
z
" style="fill:#ff0000;"/>
   </g>
   <g id="patch_98">
    <path clip-path="url(#p677e8cbd3f)" d="M 661.130838 320.4 
L 665.551515 320.4 
L 665.551515 315.19803 
L 661.130838 315.19803 
z
" style="fill:#ff0000;"/>
   </g>
   <g id="patch_99">
    <path clip-path="url(#p677e8cbd3f)" d="M 683.234225 320.4 
L 687.654902 320.4 
L 687.654902 319.749754 
L 683.234225 319.749754 
z
" style="fill:#ff0000;"/>
   </g>
   <g id="patch_100">
    <path clip-path="url(#p677e8cbd3f)" d="M 705.337611 320.4 
L 709.758289 320.4 
L 709.758289 318.449261 
L 705.337611 318.449261 
z
" style="fill:#ff0000;"/>
   </g>
   <g id="matplotlib.axis_3">
    <g id="xtick_12">
     <g id="line2d_28">
      <g>
       <use style="stroke:#000000;stroke-width:0.8;" x="482.093405" xlink:href="#md57ea945a7" y="320.4"/>
      </g>
     </g>
     <g id="text_27">
      <!-- 1 -->
      <g transform="translate(478.912155 334.998438)scale(0.1 -0.1)">
       <use xlink:href="#DejaVuSans-31"/>
      </g>
     </g>
    </g>
    <g id="xtick_13">
     <g id="line2d_29">
      <g>
       <use style="stroke:#000000;stroke-width:0.8;" x="504.196791" xlink:href="#md57ea945a7" y="320.4"/>
      </g>
     </g>
     <g id="text_28">
      <!-- 2 -->
      <g transform="translate(501.015541 334.998438)scale(0.1 -0.1)">
       <use xlink:href="#DejaVuSans-32"/>
      </g>
     </g>
    </g>
    <g id="xtick_14">
     <g id="line2d_30">
      <g>
       <use style="stroke:#000000;stroke-width:0.8;" x="526.300178" xlink:href="#md57ea945a7" y="320.4"/>
      </g>
     </g>
     <g id="text_29">
      <!-- 3 -->
      <g transform="translate(523.118928 334.998438)scale(0.1 -0.1)">
       <use xlink:href="#DejaVuSans-33"/>
      </g>
     </g>
    </g>
    <g id="xtick_15">
     <g id="line2d_31">
      <g>
       <use style="stroke:#000000;stroke-width:0.8;" x="548.403565" xlink:href="#md57ea945a7" y="320.4"/>
      </g>
     </g>
     <g id="text_30">
      <!-- 4 -->
      <g transform="translate(545.222315 334.998438)scale(0.1 -0.1)">
       <use xlink:href="#DejaVuSans-34"/>
      </g>
     </g>
    </g>
    <g id="xtick_16">
     <g id="line2d_32">
      <g>
       <use style="stroke:#000000;stroke-width:0.8;" x="570.506952" xlink:href="#md57ea945a7" y="320.4"/>
      </g>
     </g>
     <g id="text_31">
      <!-- 5 -->
      <g transform="translate(567.325702 334.998438)scale(0.1 -0.1)">
       <use xlink:href="#DejaVuSans-35"/>
      </g>
     </g>
    </g>
    <g id="xtick_17">
     <g id="line2d_33">
      <g>
       <use style="stroke:#000000;stroke-width:0.8;" x="592.610339" xlink:href="#md57ea945a7" y="320.4"/>
      </g>
     </g>
     <g id="text_32">
      <!-- 6 -->
      <g transform="translate(589.429089 334.998438)scale(0.1 -0.1)">
       <use xlink:href="#DejaVuSans-36"/>
      </g>
     </g>
    </g>
    <g id="xtick_18">
     <g id="line2d_34">
      <g>
       <use style="stroke:#000000;stroke-width:0.8;" x="614.713725" xlink:href="#md57ea945a7" y="320.4"/>
      </g>
     </g>
     <g id="text_33">
      <!-- 7 -->
      <g transform="translate(611.532475 334.998438)scale(0.1 -0.1)">
       <use xlink:href="#DejaVuSans-37"/>
      </g>
     </g>
    </g>
    <g id="xtick_19">
     <g id="line2d_35">
      <g>
       <use style="stroke:#000000;stroke-width:0.8;" x="636.817112" xlink:href="#md57ea945a7" y="320.4"/>
      </g>
     </g>
     <g id="text_34">
      <!-- 8 -->
      <g transform="translate(633.635862 334.998438)scale(0.1 -0.1)">
       <use xlink:href="#DejaVuSans-38"/>
      </g>
     </g>
    </g>
    <g id="xtick_20">
     <g id="line2d_36">
      <g>
       <use style="stroke:#000000;stroke-width:0.8;" x="658.920499" xlink:href="#md57ea945a7" y="320.4"/>
      </g>
     </g>
     <g id="text_35">
      <!-- 9 -->
      <g transform="translate(655.739249 334.998438)scale(0.1 -0.1)">
       <use xlink:href="#DejaVuSans-39"/>
      </g>
     </g>
    </g>
    <g id="xtick_21">
     <g id="line2d_37">
      <g>
       <use style="stroke:#000000;stroke-width:0.8;" x="681.023886" xlink:href="#md57ea945a7" y="320.4"/>
      </g>
     </g>
     <g id="text_36">
      <!-- 10 -->
      <g transform="translate(674.661386 334.998438)scale(0.1 -0.1)">
       <use xlink:href="#DejaVuSans-31"/>
       <use x="63.623047" xlink:href="#DejaVuSans-30"/>
      </g>
     </g>
    </g>
    <g id="xtick_22">
     <g id="line2d_38">
      <g>
       <use style="stroke:#000000;stroke-width:0.8;" x="703.127273" xlink:href="#md57ea945a7" y="320.4"/>
      </g>
     </g>
     <g id="text_37">
      <!-- 11 -->
      <g transform="translate(696.764773 334.998438)scale(0.1 -0.1)">
       <use xlink:href="#DejaVuSans-31"/>
       <use x="63.623047" xlink:href="#DejaVuSans-31"/>
      </g>
     </g>
    </g>
    <g id="text_38">
     <!-- Layers -->
     <g transform="translate(573.853906 348.676562)scale(0.1 -0.1)">
      <use xlink:href="#DejaVuSans-4c"/>
      <use x="55.712891" xlink:href="#DejaVuSans-61"/>
      <use x="116.992188" xlink:href="#DejaVuSans-79"/>
      <use x="176.171875" xlink:href="#DejaVuSans-65"/>
      <use x="237.695312" xlink:href="#DejaVuSans-72"/>
      <use x="278.808594" xlink:href="#DejaVuSans-73"/>
     </g>
    </g>
   </g>
   <g id="matplotlib.axis_4">
    <g id="ytick_9">
     <g id="line2d_39">
      <path clip-path="url(#p677e8cbd3f)" d="M 459.105882 320.4 
L 721.694118 320.4 
" style="fill:none;stroke:#b0b0b0;stroke-dasharray:2.96,1.28;stroke-dashoffset:0;stroke-width:0.8;"/>
     </g>
     <g id="line2d_40">
      <g>
       <use style="stroke:#000000;stroke-width:0.8;" x="459.105882" xlink:href="#m050195f13d" y="320.4"/>
      </g>
     </g>
     <g id="text_39">
      <!-- 0 -->
      <g transform="translate(445.743382 324.199219)scale(0.1 -0.1)">
       <use xlink:href="#DejaVuSans-30"/>
      </g>
     </g>
    </g>
    <g id="ytick_10">
     <g id="line2d_41">
      <path clip-path="url(#p677e8cbd3f)" d="M 459.105882 287.887685 
L 721.694118 287.887685 
" style="fill:none;stroke:#b0b0b0;stroke-dasharray:2.96,1.28;stroke-dashoffset:0;stroke-width:0.8;"/>
     </g>
     <g id="line2d_42">
      <g>
       <use style="stroke:#000000;stroke-width:0.8;" x="459.105882" xlink:href="#m050195f13d" y="287.887685"/>
      </g>
     </g>
     <g id="text_40">
      <!-- 50 -->
      <g transform="translate(439.380882 291.686903)scale(0.1 -0.1)">
       <use xlink:href="#DejaVuSans-35"/>
       <use x="63.623047" xlink:href="#DejaVuSans-30"/>
      </g>
     </g>
    </g>
    <g id="ytick_11">
     <g id="line2d_43">
      <path clip-path="url(#p677e8cbd3f)" d="M 459.105882 255.375369 
L 721.694118 255.375369 
" style="fill:none;stroke:#b0b0b0;stroke-dasharray:2.96,1.28;stroke-dashoffset:0;stroke-width:0.8;"/>
     </g>
     <g id="line2d_44">
      <g>
       <use style="stroke:#000000;stroke-width:0.8;" x="459.105882" xlink:href="#m050195f13d" y="255.375369"/>
      </g>
     </g>
     <g id="text_41">
      <!-- 100 -->
      <g transform="translate(433.018382 259.174588)scale(0.1 -0.1)">
       <use xlink:href="#DejaVuSans-31"/>
       <use x="63.623047" xlink:href="#DejaVuSans-30"/>
       <use x="127.246094" xlink:href="#DejaVuSans-30"/>
      </g>
     </g>
    </g>
    <g id="ytick_12">
     <g id="line2d_45">
      <path clip-path="url(#p677e8cbd3f)" d="M 459.105882 222.863054 
L 721.694118 222.863054 
" style="fill:none;stroke:#b0b0b0;stroke-dasharray:2.96,1.28;stroke-dashoffset:0;stroke-width:0.8;"/>
     </g>
     <g id="line2d_46">
      <g>
       <use style="stroke:#000000;stroke-width:0.8;" x="459.105882" xlink:href="#m050195f13d" y="222.863054"/>
      </g>
     </g>
     <g id="text_42">
      <!-- 150 -->
      <g transform="translate(433.018382 226.662273)scale(0.1 -0.1)">
       <use xlink:href="#DejaVuSans-31"/>
       <use x="63.623047" xlink:href="#DejaVuSans-35"/>
       <use x="127.246094" xlink:href="#DejaVuSans-30"/>
      </g>
     </g>
    </g>
    <g id="ytick_13">
     <g id="line2d_47">
      <path clip-path="url(#p677e8cbd3f)" d="M 459.105882 190.350739 
L 721.694118 190.350739 
" style="fill:none;stroke:#b0b0b0;stroke-dasharray:2.96,1.28;stroke-dashoffset:0;stroke-width:0.8;"/>
     </g>
     <g id="line2d_48">
      <g>
       <use style="stroke:#000000;stroke-width:0.8;" x="459.105882" xlink:href="#m050195f13d" y="190.350739"/>
      </g>
     </g>
     <g id="text_43">
      <!-- 200 -->
      <g transform="translate(433.018382 194.149958)scale(0.1 -0.1)">
       <use xlink:href="#DejaVuSans-32"/>
       <use x="63.623047" xlink:href="#DejaVuSans-30"/>
       <use x="127.246094" xlink:href="#DejaVuSans-30"/>
      </g>
     </g>
    </g>
    <g id="ytick_14">
     <g id="line2d_49">
      <path clip-path="url(#p677e8cbd3f)" d="M 459.105882 157.838424 
L 721.694118 157.838424 
" style="fill:none;stroke:#b0b0b0;stroke-dasharray:2.96,1.28;stroke-dashoffset:0;stroke-width:0.8;"/>
     </g>
     <g id="line2d_50">
      <g>
       <use style="stroke:#000000;stroke-width:0.8;" x="459.105882" xlink:href="#m050195f13d" y="157.838424"/>
      </g>
     </g>
     <g id="text_44">
      <!-- 250 -->
      <g transform="translate(433.018382 161.637642)scale(0.1 -0.1)">
       <use xlink:href="#DejaVuSans-32"/>
       <use x="63.623047" xlink:href="#DejaVuSans-35"/>
       <use x="127.246094" xlink:href="#DejaVuSans-30"/>
      </g>
     </g>
    </g>
    <g id="ytick_15">
     <g id="line2d_51">
      <path clip-path="url(#p677e8cbd3f)" d="M 459.105882 125.326108 
L 721.694118 125.326108 
" style="fill:none;stroke:#b0b0b0;stroke-dasharray:2.96,1.28;stroke-dashoffset:0;stroke-width:0.8;"/>
     </g>
     <g id="line2d_52">
      <g>
       <use style="stroke:#000000;stroke-width:0.8;" x="459.105882" xlink:href="#m050195f13d" y="125.326108"/>
      </g>
     </g>
     <g id="text_45">
      <!-- 300 -->
      <g transform="translate(433.018382 129.125327)scale(0.1 -0.1)">
       <use xlink:href="#DejaVuSans-33"/>
       <use x="63.623047" xlink:href="#DejaVuSans-30"/>
       <use x="127.246094" xlink:href="#DejaVuSans-30"/>
      </g>
     </g>
    </g>
    <g id="ytick_16">
     <g id="line2d_53">
      <path clip-path="url(#p677e8cbd3f)" d="M 459.105882 92.813793 
L 721.694118 92.813793 
" style="fill:none;stroke:#b0b0b0;stroke-dasharray:2.96,1.28;stroke-dashoffset:0;stroke-width:0.8;"/>
     </g>
     <g id="line2d_54">
      <g>
       <use style="stroke:#000000;stroke-width:0.8;" x="459.105882" xlink:href="#m050195f13d" y="92.813793"/>
      </g>
     </g>
     <g id="text_46">
      <!-- 350 -->
      <g transform="translate(433.018382 96.613012)scale(0.1 -0.1)">
       <use xlink:href="#DejaVuSans-33"/>
       <use x="63.623047" xlink:href="#DejaVuSans-35"/>
       <use x="127.246094" xlink:href="#DejaVuSans-30"/>
      </g>
     </g>
    </g>
    <g id="ytick_17">
     <g id="line2d_55">
      <path clip-path="url(#p677e8cbd3f)" d="M 459.105882 60.301478 
L 721.694118 60.301478 
" style="fill:none;stroke:#b0b0b0;stroke-dasharray:2.96,1.28;stroke-dashoffset:0;stroke-width:0.8;"/>
     </g>
     <g id="line2d_56">
      <g>
       <use style="stroke:#000000;stroke-width:0.8;" x="459.105882" xlink:href="#m050195f13d" y="60.301478"/>
      </g>
     </g>
     <g id="text_47">
      <!-- 400 -->
      <g transform="translate(433.018382 64.100697)scale(0.1 -0.1)">
       <use xlink:href="#DejaVuSans-34"/>
       <use x="63.623047" xlink:href="#DejaVuSans-30"/>
       <use x="127.246094" xlink:href="#DejaVuSans-30"/>
      </g>
     </g>
    </g>
    <g id="text_48">
     <!-- Exiting samples -->
     <g transform="translate(426.938695 221.372656)rotate(-90)scale(0.1 -0.1)">
      <use xlink:href="#DejaVuSans-45"/>
      <use x="63.183594" xlink:href="#DejaVuSans-78"/>
      <use x="122.363281" xlink:href="#DejaVuSans-69"/>
      <use x="150.146484" xlink:href="#DejaVuSans-74"/>
      <use x="189.355469" xlink:href="#DejaVuSans-69"/>
      <use x="217.138672" xlink:href="#DejaVuSans-6e"/>
      <use x="280.517578" xlink:href="#DejaVuSans-67"/>
      <use x="343.994141" xlink:href="#DejaVuSans-20"/>
      <use x="375.78125" xlink:href="#DejaVuSans-73"/>
      <use x="427.880859" xlink:href="#DejaVuSans-61"/>
      <use x="489.160156" xlink:href="#DejaVuSans-6d"/>
      <use x="586.572266" xlink:href="#DejaVuSans-70"/>
      <use x="650.048828" xlink:href="#DejaVuSans-6c"/>
      <use x="677.832031" xlink:href="#DejaVuSans-65"/>
      <use x="739.355469" xlink:href="#DejaVuSans-73"/>
     </g>
    </g>
   </g>
   <g id="patch_101">
    <path d="M 459.105882 320.4 
L 459.105882 43.2 
" style="fill:none;stroke:#000000;stroke-linecap:square;stroke-linejoin:miter;stroke-width:0.8;"/>
   </g>
   <g id="patch_102">
    <path d="M 721.694118 320.4 
L 721.694118 43.2 
" style="fill:none;stroke:#000000;stroke-linecap:square;stroke-linejoin:miter;stroke-width:0.8;"/>
   </g>
   <g id="patch_103">
    <path d="M 459.105882 320.4 
L 721.694118 320.4 
" style="fill:none;stroke:#000000;stroke-linecap:square;stroke-linejoin:miter;stroke-width:0.8;"/>
   </g>
   <g id="patch_104">
    <path d="M 459.105882 43.2 
L 721.694118 43.2 
" style="fill:none;stroke:#000000;stroke-linecap:square;stroke-linejoin:miter;stroke-width:0.8;"/>
   </g>
   <g id="text_49">
    <!-- ECDT -->
    <defs>
     <path d="M 64.40625 67.28125 
L 64.40625 56.890625 
Q 59.421875 61.53125 53.78125 63.8125 
Q 48.140625 66.109375 41.796875 66.109375 
Q 29.296875 66.109375 22.65625 58.46875 
Q 16.015625 50.828125 16.015625 36.375 
Q 16.015625 21.96875 22.65625 14.328125 
Q 29.296875 6.6875 41.796875 6.6875 
Q 48.140625 6.6875 53.78125 8.984375 
Q 59.421875 11.28125 64.40625 15.921875 
L 64.40625 5.609375 
Q 59.234375 2.09375 53.4375 0.328125 
Q 47.65625 -1.421875 41.21875 -1.421875 
Q 24.65625 -1.421875 15.125 8.703125 
Q 5.609375 18.84375 5.609375 36.375 
Q 5.609375 53.953125 15.125 64.078125 
Q 24.65625 74.21875 41.21875 74.21875 
Q 47.75 74.21875 53.53125 72.484375 
Q 59.328125 70.75 64.40625 67.28125 
z
" id="DejaVuSans-43"/>
    </defs>
    <g transform="translate(574.134375 37.2)scale(0.12 -0.12)">
     <use xlink:href="#DejaVuSans-45"/>
     <use x="63.183594" xlink:href="#DejaVuSans-43"/>
     <use x="133.007812" xlink:href="#DejaVuSans-44"/>
     <use x="210.009766" xlink:href="#DejaVuSans-54"/>
    </g>
   </g>
   <g id="legend_2">
    <g id="patch_105">
     <path d="M 655.768336 89.89875 
L 716.794118 89.89875 
Q 718.194118 89.89875 718.194118 88.49875 
L 718.194118 48.1 
Q 718.194118 46.7 716.794118 46.7 
L 655.768336 46.7 
Q 654.368336 46.7 654.368336 48.1 
L 654.368336 88.49875 
Q 654.368336 89.89875 655.768336 89.89875 
z
" style="fill:#ffffff;opacity:0.8;stroke:#cccccc;stroke-linejoin:miter;"/>
    </g>
    <g id="patch_106">
     <path d="M 657.168336 54.818906 
L 671.168336 54.818906 
L 671.168336 49.918906 
L 657.168336 49.918906 
z
" style="fill:#427da6;"/>
    </g>
    <g id="text_50">
     <!-- DeeBERT -->
     <g transform="translate(676.768336 54.818906)scale(0.07 -0.07)">
      <use xlink:href="#DejaVuSans-44"/>
      <use x="77.001953" xlink:href="#DejaVuSans-65"/>
      <use x="138.525391" xlink:href="#DejaVuSans-65"/>
      <use x="200.048828" xlink:href="#DejaVuSans-42"/>
      <use x="268.652344" xlink:href="#DejaVuSans-45"/>
      <use x="331.835938" xlink:href="#DejaVuSans-52"/>
      <use x="401.208984" xlink:href="#DejaVuSans-54"/>
     </g>
    </g>
    <g id="patch_107">
     <path d="M 657.168336 65.093594 
L 671.168336 65.093594 
L 671.168336 60.193594 
L 657.168336 60.193594 
z
" style="fill:#ffa500;"/>
    </g>
    <g id="text_51">
     <!-- RightTool -->
     <g transform="translate(676.768336 65.093594)scale(0.07 -0.07)">
      <use xlink:href="#DejaVuSans-52"/>
      <use x="69.482422" xlink:href="#DejaVuSans-69"/>
      <use x="97.265625" xlink:href="#DejaVuSans-67"/>
      <use x="160.742188" xlink:href="#DejaVuSans-68"/>
      <use x="224.121094" xlink:href="#DejaVuSans-74"/>
      <use x="263.330078" xlink:href="#DejaVuSans-54"/>
      <use x="324.148438" xlink:href="#DejaVuSans-6f"/>
      <use x="385.330078" xlink:href="#DejaVuSans-6f"/>
      <use x="446.511719" xlink:href="#DejaVuSans-6c"/>
     </g>
    </g>
    <g id="patch_108">
     <path d="M 657.168336 75.368281 
L 671.168336 75.368281 
L 671.168336 70.468281 
L 657.168336 70.468281 
z
" style="fill:#008000;"/>
    </g>
    <g id="text_52">
     <!-- RomeBERT -->
     <g transform="translate(676.768336 75.368281)scale(0.07 -0.07)">
      <use xlink:href="#DejaVuSans-52"/>
      <use x="69.419922" xlink:href="#DejaVuSans-6f"/>
      <use x="130.601562" xlink:href="#DejaVuSans-6d"/>
      <use x="228.013672" xlink:href="#DejaVuSans-65"/>
      <use x="289.537109" xlink:href="#DejaVuSans-42"/>
      <use x="358.140625" xlink:href="#DejaVuSans-45"/>
      <use x="421.324219" xlink:href="#DejaVuSans-52"/>
      <use x="490.697266" xlink:href="#DejaVuSans-54"/>
     </g>
    </g>
    <g id="patch_109">
     <path d="M 657.168336 85.642969 
L 671.168336 85.642969 
L 671.168336 80.742969 
L 657.168336 80.742969 
z
" style="fill:#ff0000;"/>
    </g>
    <g id="text_53">
     <!-- OdeBERT -->
     <g transform="translate(676.768336 85.642969)scale(0.07 -0.07)">
      <use xlink:href="#DejaVuSans-4f"/>
      <use x="78.710938" xlink:href="#DejaVuSans-64"/>
      <use x="142.1875" xlink:href="#DejaVuSans-65"/>
      <use x="203.710938" xlink:href="#DejaVuSans-42"/>
      <use x="272.314453" xlink:href="#DejaVuSans-45"/>
      <use x="335.498047" xlink:href="#DejaVuSans-52"/>
      <use x="404.871094" xlink:href="#DejaVuSans-54"/>
     </g>
    </g>
   </g>
  </g>
  <g id="axes_3">
   <g id="patch_110">
    <path d="M 774.211765 320.4 
L 1036.8 320.4 
L 1036.8 43.2 
L 774.211765 43.2 
z
" style="fill:#ffffff;"/>
   </g>
   <g id="patch_111">
    <path clip-path="url(#p484e60693b)" d="M 786.147594 320.4 
L 790.568271 320.4 
L 790.568271 206.751759 
L 786.147594 206.751759 
z
" style="fill:#427da6;"/>
   </g>
   <g id="patch_112">
    <path clip-path="url(#p484e60693b)" d="M 808.25098 320.4 
L 812.671658 320.4 
L 812.671658 284.138693 
L 808.25098 284.138693 
z
" style="fill:#427da6;"/>
   </g>
   <g id="patch_113">
    <path clip-path="url(#p484e60693b)" d="M 830.354367 320.4 
L 834.775045 320.4 
L 834.775045 319.073367 
L 830.354367 319.073367 
z
" style="fill:#427da6;"/>
   </g>
   <g id="patch_114">
    <path clip-path="url(#p484e60693b)" d="M 852.457754 320.4 
L 856.878431 320.4 
L 856.878431 260.259296 
L 852.457754 260.259296 
z
" style="fill:#427da6;"/>
   </g>
   <g id="patch_115">
    <path clip-path="url(#p484e60693b)" d="M 874.561141 320.4 
L 878.981818 320.4 
L 878.981818 297.847236 
L 874.561141 297.847236 
z
" style="fill:#427da6;"/>
   </g>
   <g id="patch_116">
    <path clip-path="url(#p484e60693b)" d="M 896.664528 320.4 
L 901.085205 320.4 
L 901.085205 316.420101 
L 896.664528 316.420101 
z
" style="fill:#427da6;"/>
   </g>
   <g id="patch_117">
    <path clip-path="url(#p484e60693b)" d="M 918.767914 320.4 
L 923.188592 320.4 
L 923.188592 310.671357 
L 918.767914 310.671357 
z
" style="fill:#427da6;"/>
   </g>
   <g id="patch_118">
    <path clip-path="url(#p484e60693b)" d="M 940.871301 320.4 
L 945.291979 320.4 
L 945.291979 296.520603 
L 940.871301 296.520603 
z
" style="fill:#427da6;"/>
   </g>
   <g id="patch_119">
    <path clip-path="url(#p484e60693b)" d="M 962.974688 320.4 
L 967.395365 320.4 
L 967.395365 264.681407 
L 962.974688 264.681407 
z
" style="fill:#427da6;"/>
   </g>
   <g id="patch_120">
    <path clip-path="url(#p484e60693b)" d="M 985.078075 320.4 
L 989.498752 320.4 
L 989.498752 273.083417 
L 985.078075 273.083417 
z
" style="fill:#427da6;"/>
   </g>
   <g id="patch_121">
    <path clip-path="url(#p484e60693b)" d="M 1007.181462 320.4 
L 1011.602139 320.4 
L 1011.602139 243.897487 
L 1007.181462 243.897487 
z
" style="fill:#427da6;"/>
   </g>
   <g id="patch_122">
    <path clip-path="url(#p484e60693b)" d="M 790.568271 320.4 
L 794.988948 320.4 
L 794.988948 230.631156 
L 790.568271 230.631156 
z
" style="fill:#ffa500;"/>
   </g>
   <g id="patch_123">
    <path clip-path="url(#p484e60693b)" d="M 812.671658 320.4 
L 817.092335 320.4 
L 817.092335 194.81206 
L 812.671658 194.81206 
z
" style="fill:#ffa500;"/>
   </g>
   <g id="patch_124">
    <path clip-path="url(#p484e60693b)" d="M 834.775045 320.4 
L 839.195722 320.4 
L 839.195722 231.073367 
L 834.775045 231.073367 
z
" style="fill:#ffa500;"/>
   </g>
   <g id="patch_125">
    <path clip-path="url(#p484e60693b)" d="M 856.878431 320.4 
L 861.299109 320.4 
L 861.299109 241.244221 
L 856.878431 241.244221 
z
" style="fill:#ffa500;"/>
   </g>
   <g id="patch_126">
    <path clip-path="url(#p484e60693b)" d="M 878.981818 320.4 
L 883.402496 320.4 
L 883.402496 282.81206 
L 878.981818 282.81206 
z
" style="fill:#ffa500;"/>
   </g>
   <g id="patch_127">
    <path clip-path="url(#p484e60693b)" d="M 901.085205 320.4 
L 905.505882 320.4 
L 905.505882 304.922613 
L 901.085205 304.922613 
z
" style="fill:#ffa500;"/>
   </g>
   <g id="patch_128">
    <path clip-path="url(#p484e60693b)" d="M 923.188592 320.4 
L 927.609269 320.4 
L 927.609269 311.555779 
L 923.188592 311.555779 
z
" style="fill:#ffa500;"/>
   </g>
   <g id="patch_129">
    <path clip-path="url(#p484e60693b)" d="M 945.291979 320.4 
L 949.712656 320.4 
L 949.712656 313.766834 
L 945.291979 313.766834 
z
" style="fill:#ffa500;"/>
   </g>
   <g id="patch_130">
    <path clip-path="url(#p484e60693b)" d="M 967.395365 320.4 
L 971.816043 320.4 
L 971.816043 315.535678 
L 967.395365 315.535678 
z
" style="fill:#ffa500;"/>
   </g>
   <g id="patch_131">
    <path clip-path="url(#p484e60693b)" d="M 989.498752 320.4 
L 993.91943 320.4 
L 993.91943 316.420101 
L 989.498752 316.420101 
z
" style="fill:#ffa500;"/>
   </g>
   <g id="patch_132">
    <path clip-path="url(#p484e60693b)" d="M 1011.602139 320.4 
L 1016.022816 320.4 
L 1016.022816 319.515578 
L 1011.602139 319.515578 
z
" style="fill:#ffa500;"/>
   </g>
   <g id="patch_133">
    <path clip-path="url(#p484e60693b)" d="M 794.988948 320.4 
L 799.409626 320.4 
L 799.409626 56.4 
L 794.988948 56.4 
z
" style="fill:#008000;"/>
   </g>
   <g id="patch_134">
    <path clip-path="url(#p484e60693b)" d="M 817.092335 320.4 
L 821.513012 320.4 
L 821.513012 246.992965 
L 817.092335 246.992965 
z
" style="fill:#008000;"/>
   </g>
   <g id="patch_135">
    <path clip-path="url(#p484e60693b)" d="M 839.195722 320.4 
L 843.616399 320.4 
L 843.616399 292.982915 
L 839.195722 292.982915 
z
" style="fill:#008000;"/>
   </g>
   <g id="patch_136">
    <path clip-path="url(#p484e60693b)" d="M 861.299109 320.4 
L 865.719786 320.4 
L 865.719786 312.440201 
L 861.299109 312.440201 
z
" style="fill:#008000;"/>
   </g>
   <g id="patch_137">
    <path clip-path="url(#p484e60693b)" d="M 883.402496 320.4 
L 887.823173 320.4 
L 887.823173 317.304523 
L 883.402496 317.304523 
z
" style="fill:#008000;"/>
   </g>
   <g id="patch_138">
    <path clip-path="url(#p484e60693b)" d="M 905.505882 320.4 
L 909.92656 320.4 
L 909.92656 318.631156 
L 905.505882 318.631156 
z
" style="fill:#008000;"/>
   </g>
   <g id="patch_139">
    <path clip-path="url(#p484e60693b)" d="M 927.609269 320.4 
L 932.029947 320.4 
L 932.029947 319.957789 
L 927.609269 319.957789 
z
" style="fill:#008000;"/>
   </g>
   <g id="patch_140">
    <path clip-path="url(#p484e60693b)" d="M 949.712656 320.4 
L 954.133333 320.4 
L 954.133333 319.515578 
L 949.712656 319.515578 
z
" style="fill:#008000;"/>
   </g>
   <g id="patch_141">
    <path clip-path="url(#p484e60693b)" d="M 971.816043 320.4 
L 976.23672 320.4 
L 976.23672 320.4 
L 971.816043 320.4 
z
" style="fill:#008000;"/>
   </g>
   <g id="patch_142">
    <path clip-path="url(#p484e60693b)" d="M 993.91943 320.4 
L 998.340107 320.4 
L 998.340107 319.957789 
L 993.91943 319.957789 
z
" style="fill:#008000;"/>
   </g>
   <g id="patch_143">
    <path clip-path="url(#p484e60693b)" d="M 1016.022816 320.4 
L 1020.443494 320.4 
L 1020.443494 320.4 
L 1016.022816 320.4 
z
" style="fill:#008000;"/>
   </g>
   <g id="patch_144">
    <path clip-path="url(#p484e60693b)" d="M 799.409626 320.4 
L 803.830303 320.4 
L 803.830303 221.786935 
L 799.409626 221.786935 
z
" style="fill:#ff0000;"/>
   </g>
   <g id="patch_145">
    <path clip-path="url(#p484e60693b)" d="M 821.513012 320.4 
L 825.93369 320.4 
L 825.93369 113.887437 
L 821.513012 113.887437 
z
" style="fill:#ff0000;"/>
   </g>
   <g id="patch_146">
    <path clip-path="url(#p484e60693b)" d="M 843.616399 320.4 
L 848.037077 320.4 
L 848.037077 275.736683 
L 843.616399 275.736683 
z
" style="fill:#ff0000;"/>
   </g>
   <g id="patch_147">
    <path clip-path="url(#p484e60693b)" d="M 865.719786 320.4 
L 870.140463 320.4 
L 870.140463 270.430151 
L 865.719786 270.430151 
z
" style="fill:#ff0000;"/>
   </g>
   <g id="patch_148">
    <path clip-path="url(#p484e60693b)" d="M 887.823173 320.4 
L 892.24385 320.4 
L 892.24385 290.329648 
L 887.823173 290.329648 
z
" style="fill:#ff0000;"/>
   </g>
   <g id="patch_149">
    <path clip-path="url(#p484e60693b)" d="M 909.92656 320.4 
L 914.347237 320.4 
L 914.347237 307.133668 
L 909.92656 307.133668 
z
" style="fill:#ff0000;"/>
   </g>
   <g id="patch_150">
    <path clip-path="url(#p484e60693b)" d="M 932.029947 320.4 
L 936.450624 320.4 
L 936.450624 317.746734 
L 932.029947 317.746734 
z
" style="fill:#ff0000;"/>
   </g>
   <g id="patch_151">
    <path clip-path="url(#p484e60693b)" d="M 954.133333 320.4 
L 958.554011 320.4 
L 958.554011 319.073367 
L 954.133333 319.073367 
z
" style="fill:#ff0000;"/>
   </g>
   <g id="patch_152">
    <path clip-path="url(#p484e60693b)" d="M 976.23672 320.4 
L 980.657398 320.4 
L 980.657398 316.420101 
L 976.23672 316.420101 
z
" style="fill:#ff0000;"/>
   </g>
   <g id="patch_153">
    <path clip-path="url(#p484e60693b)" d="M 998.340107 320.4 
L 1002.760784 320.4 
L 1002.760784 319.073367 
L 998.340107 319.073367 
z
" style="fill:#ff0000;"/>
   </g>
   <g id="patch_154">
    <path clip-path="url(#p484e60693b)" d="M 1020.443494 320.4 
L 1024.864171 320.4 
L 1024.864171 317.304523 
L 1020.443494 317.304523 
z
" style="fill:#ff0000;"/>
   </g>
   <g id="matplotlib.axis_5">
    <g id="xtick_23">
     <g id="line2d_57">
      <g>
       <use style="stroke:#000000;stroke-width:0.8;" x="797.199287" xlink:href="#md57ea945a7" y="320.4"/>
      </g>
     </g>
     <g id="text_54">
      <!-- 1 -->
      <g transform="translate(794.018037 334.998438)scale(0.1 -0.1)">
       <use xlink:href="#DejaVuSans-31"/>
      </g>
     </g>
    </g>
    <g id="xtick_24">
     <g id="line2d_58">
      <g>
       <use style="stroke:#000000;stroke-width:0.8;" x="819.302674" xlink:href="#md57ea945a7" y="320.4"/>
      </g>
     </g>
     <g id="text_55">
      <!-- 2 -->
      <g transform="translate(816.121424 334.998438)scale(0.1 -0.1)">
       <use xlink:href="#DejaVuSans-32"/>
      </g>
     </g>
    </g>
    <g id="xtick_25">
     <g id="line2d_59">
      <g>
       <use style="stroke:#000000;stroke-width:0.8;" x="841.406061" xlink:href="#md57ea945a7" y="320.4"/>
      </g>
     </g>
     <g id="text_56">
      <!-- 3 -->
      <g transform="translate(838.224811 334.998438)scale(0.1 -0.1)">
       <use xlink:href="#DejaVuSans-33"/>
      </g>
     </g>
    </g>
    <g id="xtick_26">
     <g id="line2d_60">
      <g>
       <use style="stroke:#000000;stroke-width:0.8;" x="863.509447" xlink:href="#md57ea945a7" y="320.4"/>
      </g>
     </g>
     <g id="text_57">
      <!-- 4 -->
      <g transform="translate(860.328197 334.998438)scale(0.1 -0.1)">
       <use xlink:href="#DejaVuSans-34"/>
      </g>
     </g>
    </g>
    <g id="xtick_27">
     <g id="line2d_61">
      <g>
       <use style="stroke:#000000;stroke-width:0.8;" x="885.612834" xlink:href="#md57ea945a7" y="320.4"/>
      </g>
     </g>
     <g id="text_58">
      <!-- 5 -->
      <g transform="translate(882.431584 334.998438)scale(0.1 -0.1)">
       <use xlink:href="#DejaVuSans-35"/>
      </g>
     </g>
    </g>
    <g id="xtick_28">
     <g id="line2d_62">
      <g>
       <use style="stroke:#000000;stroke-width:0.8;" x="907.716221" xlink:href="#md57ea945a7" y="320.4"/>
      </g>
     </g>
     <g id="text_59">
      <!-- 6 -->
      <g transform="translate(904.534971 334.998438)scale(0.1 -0.1)">
       <use xlink:href="#DejaVuSans-36"/>
      </g>
     </g>
    </g>
    <g id="xtick_29">
     <g id="line2d_63">
      <g>
       <use style="stroke:#000000;stroke-width:0.8;" x="929.819608" xlink:href="#md57ea945a7" y="320.4"/>
      </g>
     </g>
     <g id="text_60">
      <!-- 7 -->
      <g transform="translate(926.638358 334.998438)scale(0.1 -0.1)">
       <use xlink:href="#DejaVuSans-37"/>
      </g>
     </g>
    </g>
    <g id="xtick_30">
     <g id="line2d_64">
      <g>
       <use style="stroke:#000000;stroke-width:0.8;" x="951.922995" xlink:href="#md57ea945a7" y="320.4"/>
      </g>
     </g>
     <g id="text_61">
      <!-- 8 -->
      <g transform="translate(948.741745 334.998438)scale(0.1 -0.1)">
       <use xlink:href="#DejaVuSans-38"/>
      </g>
     </g>
    </g>
    <g id="xtick_31">
     <g id="line2d_65">
      <g>
       <use style="stroke:#000000;stroke-width:0.8;" x="974.026381" xlink:href="#md57ea945a7" y="320.4"/>
      </g>
     </g>
     <g id="text_62">
      <!-- 9 -->
      <g transform="translate(970.845131 334.998438)scale(0.1 -0.1)">
       <use xlink:href="#DejaVuSans-39"/>
      </g>
     </g>
    </g>
    <g id="xtick_32">
     <g id="line2d_66">
      <g>
       <use style="stroke:#000000;stroke-width:0.8;" x="996.129768" xlink:href="#md57ea945a7" y="320.4"/>
      </g>
     </g>
     <g id="text_63">
      <!-- 10 -->
      <g transform="translate(989.767268 334.998438)scale(0.1 -0.1)">
       <use xlink:href="#DejaVuSans-31"/>
       <use x="63.623047" xlink:href="#DejaVuSans-30"/>
      </g>
     </g>
    </g>
    <g id="xtick_33">
     <g id="line2d_67">
      <g>
       <use style="stroke:#000000;stroke-width:0.8;" x="1018.233155" xlink:href="#md57ea945a7" y="320.4"/>
      </g>
     </g>
     <g id="text_64">
      <!-- 11 -->
      <g transform="translate(1011.870655 334.998438)scale(0.1 -0.1)">
       <use xlink:href="#DejaVuSans-31"/>
       <use x="63.623047" xlink:href="#DejaVuSans-31"/>
      </g>
     </g>
    </g>
    <g id="text_65">
     <!-- Layers -->
     <g transform="translate(888.959789 348.676562)scale(0.1 -0.1)">
      <use xlink:href="#DejaVuSans-4c"/>
      <use x="55.712891" xlink:href="#DejaVuSans-61"/>
      <use x="116.992188" xlink:href="#DejaVuSans-79"/>
      <use x="176.171875" xlink:href="#DejaVuSans-65"/>
      <use x="237.695312" xlink:href="#DejaVuSans-72"/>
      <use x="278.808594" xlink:href="#DejaVuSans-73"/>
     </g>
    </g>
   </g>
   <g id="matplotlib.axis_6">
    <g id="ytick_18">
     <g id="line2d_68">
      <path clip-path="url(#p484e60693b)" d="M 774.211765 320.4 
L 1036.8 320.4 
" style="fill:none;stroke:#b0b0b0;stroke-dasharray:2.96,1.28;stroke-dashoffset:0;stroke-width:0.8;"/>
     </g>
     <g id="line2d_69">
      <g>
       <use style="stroke:#000000;stroke-width:0.8;" x="774.211765" xlink:href="#m050195f13d" y="320.4"/>
      </g>
     </g>
     <g id="text_66">
      <!-- 0 -->
      <g transform="translate(760.849265 324.199219)scale(0.1 -0.1)">
       <use xlink:href="#DejaVuSans-30"/>
      </g>
     </g>
    </g>
    <g id="ytick_19">
     <g id="line2d_70">
      <path clip-path="url(#p484e60693b)" d="M 774.211765 276.178894 
L 1036.8 276.178894 
" style="fill:none;stroke:#b0b0b0;stroke-dasharray:2.96,1.28;stroke-dashoffset:0;stroke-width:0.8;"/>
     </g>
     <g id="line2d_71">
      <g>
       <use style="stroke:#000000;stroke-width:0.8;" x="774.211765" xlink:href="#m050195f13d" y="276.178894"/>
      </g>
     </g>
     <g id="text_67">
      <!-- 100 -->
      <g transform="translate(748.124265 279.978113)scale(0.1 -0.1)">
       <use xlink:href="#DejaVuSans-31"/>
       <use x="63.623047" xlink:href="#DejaVuSans-30"/>
       <use x="127.246094" xlink:href="#DejaVuSans-30"/>
      </g>
     </g>
    </g>
    <g id="ytick_20">
     <g id="line2d_72">
      <path clip-path="url(#p484e60693b)" d="M 774.211765 231.957789 
L 1036.8 231.957789 
" style="fill:none;stroke:#b0b0b0;stroke-dasharray:2.96,1.28;stroke-dashoffset:0;stroke-width:0.8;"/>
     </g>
     <g id="line2d_73">
      <g>
       <use style="stroke:#000000;stroke-width:0.8;" x="774.211765" xlink:href="#m050195f13d" y="231.957789"/>
      </g>
     </g>
     <g id="text_68">
      <!-- 200 -->
      <g transform="translate(748.124265 235.757008)scale(0.1 -0.1)">
       <use xlink:href="#DejaVuSans-32"/>
       <use x="63.623047" xlink:href="#DejaVuSans-30"/>
       <use x="127.246094" xlink:href="#DejaVuSans-30"/>
      </g>
     </g>
    </g>
    <g id="ytick_21">
     <g id="line2d_74">
      <path clip-path="url(#p484e60693b)" d="M 774.211765 187.736683 
L 1036.8 187.736683 
" style="fill:none;stroke:#b0b0b0;stroke-dasharray:2.96,1.28;stroke-dashoffset:0;stroke-width:0.8;"/>
     </g>
     <g id="line2d_75">
      <g>
       <use style="stroke:#000000;stroke-width:0.8;" x="774.211765" xlink:href="#m050195f13d" y="187.736683"/>
      </g>
     </g>
     <g id="text_69">
      <!-- 300 -->
      <g transform="translate(748.124265 191.535902)scale(0.1 -0.1)">
       <use xlink:href="#DejaVuSans-33"/>
       <use x="63.623047" xlink:href="#DejaVuSans-30"/>
       <use x="127.246094" xlink:href="#DejaVuSans-30"/>
      </g>
     </g>
    </g>
    <g id="ytick_22">
     <g id="line2d_76">
      <path clip-path="url(#p484e60693b)" d="M 774.211765 143.515578 
L 1036.8 143.515578 
" style="fill:none;stroke:#b0b0b0;stroke-dasharray:2.96,1.28;stroke-dashoffset:0;stroke-width:0.8;"/>
     </g>
     <g id="line2d_77">
      <g>
       <use style="stroke:#000000;stroke-width:0.8;" x="774.211765" xlink:href="#m050195f13d" y="143.515578"/>
      </g>
     </g>
     <g id="text_70">
      <!-- 400 -->
      <g transform="translate(748.124265 147.314797)scale(0.1 -0.1)">
       <use xlink:href="#DejaVuSans-34"/>
       <use x="63.623047" xlink:href="#DejaVuSans-30"/>
       <use x="127.246094" xlink:href="#DejaVuSans-30"/>
      </g>
     </g>
    </g>
    <g id="ytick_23">
     <g id="line2d_78">
      <path clip-path="url(#p484e60693b)" d="M 774.211765 99.294472 
L 1036.8 99.294472 
" style="fill:none;stroke:#b0b0b0;stroke-dasharray:2.96,1.28;stroke-dashoffset:0;stroke-width:0.8;"/>
     </g>
     <g id="line2d_79">
      <g>
       <use style="stroke:#000000;stroke-width:0.8;" x="774.211765" xlink:href="#m050195f13d" y="99.294472"/>
      </g>
     </g>
     <g id="text_71">
      <!-- 500 -->
      <g transform="translate(748.124265 103.093691)scale(0.1 -0.1)">
       <use xlink:href="#DejaVuSans-35"/>
       <use x="63.623047" xlink:href="#DejaVuSans-30"/>
       <use x="127.246094" xlink:href="#DejaVuSans-30"/>
      </g>
     </g>
    </g>
    <g id="ytick_24">
     <g id="line2d_80">
      <path clip-path="url(#p484e60693b)" d="M 774.211765 55.073367 
L 1036.8 55.073367 
" style="fill:none;stroke:#b0b0b0;stroke-dasharray:2.96,1.28;stroke-dashoffset:0;stroke-width:0.8;"/>
     </g>
     <g id="line2d_81">
      <g>
       <use style="stroke:#000000;stroke-width:0.8;" x="774.211765" xlink:href="#m050195f13d" y="55.073367"/>
      </g>
     </g>
     <g id="text_72">
      <!-- 600 -->
      <g transform="translate(748.124265 58.872586)scale(0.1 -0.1)">
       <use xlink:href="#DejaVuSans-36"/>
       <use x="63.623047" xlink:href="#DejaVuSans-30"/>
       <use x="127.246094" xlink:href="#DejaVuSans-30"/>
      </g>
     </g>
    </g>
    <g id="text_73">
     <!-- Exiting samples -->
     <g transform="translate(742.044577 221.372656)rotate(-90)scale(0.1 -0.1)">
      <use xlink:href="#DejaVuSans-45"/>
      <use x="63.183594" xlink:href="#DejaVuSans-78"/>
      <use x="122.363281" xlink:href="#DejaVuSans-69"/>
      <use x="150.146484" xlink:href="#DejaVuSans-74"/>
      <use x="189.355469" xlink:href="#DejaVuSans-69"/>
      <use x="217.138672" xlink:href="#DejaVuSans-6e"/>
      <use x="280.517578" xlink:href="#DejaVuSans-67"/>
      <use x="343.994141" xlink:href="#DejaVuSans-20"/>
      <use x="375.78125" xlink:href="#DejaVuSans-73"/>
      <use x="427.880859" xlink:href="#DejaVuSans-61"/>
      <use x="489.160156" xlink:href="#DejaVuSans-6d"/>
      <use x="586.572266" xlink:href="#DejaVuSans-70"/>
      <use x="650.048828" xlink:href="#DejaVuSans-6c"/>
      <use x="677.832031" xlink:href="#DejaVuSans-65"/>
      <use x="739.355469" xlink:href="#DejaVuSans-73"/>
     </g>
    </g>
   </g>
   <g id="patch_155">
    <path d="M 774.211765 320.4 
L 774.211765 43.2 
" style="fill:none;stroke:#000000;stroke-linecap:square;stroke-linejoin:miter;stroke-width:0.8;"/>
   </g>
   <g id="patch_156">
    <path d="M 1036.8 320.4 
L 1036.8 43.2 
" style="fill:none;stroke:#000000;stroke-linecap:square;stroke-linejoin:miter;stroke-width:0.8;"/>
   </g>
   <g id="patch_157">
    <path d="M 774.211765 320.4 
L 1036.8 320.4 
" style="fill:none;stroke:#000000;stroke-linecap:square;stroke-linejoin:miter;stroke-width:0.8;"/>
   </g>
   <g id="patch_158">
    <path d="M 774.211765 43.2 
L 1036.8 43.2 
" style="fill:none;stroke:#000000;stroke-linecap:square;stroke-linejoin:miter;stroke-width:0.8;"/>
   </g>
   <g id="text_74">
    <!-- FDQuestion -->
    <defs>
     <path d="M 9.8125 72.90625 
L 51.703125 72.90625 
L 51.703125 64.59375 
L 19.671875 64.59375 
L 19.671875 43.109375 
L 48.578125 43.109375 
L 48.578125 34.8125 
L 19.671875 34.8125 
L 19.671875 0 
L 9.8125 0 
z
" id="DejaVuSans-46"/>
     <path d="M 39.40625 66.21875 
Q 28.65625 66.21875 22.328125 58.203125 
Q 16.015625 50.203125 16.015625 36.375 
Q 16.015625 22.609375 22.328125 14.59375 
Q 28.65625 6.59375 39.40625 6.59375 
Q 50.140625 6.59375 56.421875 14.59375 
Q 62.703125 22.609375 62.703125 36.375 
Q 62.703125 50.203125 56.421875 58.203125 
Q 50.140625 66.21875 39.40625 66.21875 
z
M 53.21875 1.3125 
L 66.21875 -12.890625 
L 54.296875 -12.890625 
L 43.5 -1.21875 
Q 41.890625 -1.3125 41.03125 -1.359375 
Q 40.1875 -1.421875 39.40625 -1.421875 
Q 24.03125 -1.421875 14.8125 8.859375 
Q 5.609375 19.140625 5.609375 36.375 
Q 5.609375 53.65625 14.8125 63.9375 
Q 24.03125 74.21875 39.40625 74.21875 
Q 54.734375 74.21875 63.90625 63.9375 
Q 73.09375 53.65625 73.09375 36.375 
Q 73.09375 23.6875 67.984375 14.640625 
Q 62.890625 5.609375 53.21875 1.3125 
z
" id="DejaVuSans-51"/>
     <path d="M 8.5 21.578125 
L 8.5 54.6875 
L 17.484375 54.6875 
L 17.484375 21.921875 
Q 17.484375 14.15625 20.5 10.265625 
Q 23.53125 6.390625 29.59375 6.390625 
Q 36.859375 6.390625 41.078125 11.03125 
Q 45.3125 15.671875 45.3125 23.6875 
L 45.3125 54.6875 
L 54.296875 54.6875 
L 54.296875 0 
L 45.3125 0 
L 45.3125 8.40625 
Q 42.046875 3.421875 37.71875 1 
Q 33.40625 -1.421875 27.6875 -1.421875 
Q 18.265625 -1.421875 13.375 4.4375 
Q 8.5 10.296875 8.5 21.578125 
z
M 31.109375 56 
z
" id="DejaVuSans-75"/>
    </defs>
    <g transform="translate(870.599007 37.2)scale(0.12 -0.12)">
     <use xlink:href="#DejaVuSans-46"/>
     <use x="57.519531" xlink:href="#DejaVuSans-44"/>
     <use x="134.521484" xlink:href="#DejaVuSans-51"/>
     <use x="213.232422" xlink:href="#DejaVuSans-75"/>
     <use x="276.611328" xlink:href="#DejaVuSans-65"/>
     <use x="338.134766" xlink:href="#DejaVuSans-73"/>
     <use x="390.234375" xlink:href="#DejaVuSans-74"/>
     <use x="429.443359" xlink:href="#DejaVuSans-69"/>
     <use x="457.226562" xlink:href="#DejaVuSans-6f"/>
     <use x="518.408203" xlink:href="#DejaVuSans-6e"/>
    </g>
   </g>
   <g id="legend_3">
    <g id="patch_159">
     <path d="M 970.874219 89.89875 
L 1031.9 89.89875 
Q 1033.3 89.89875 1033.3 88.49875 
L 1033.3 48.1 
Q 1033.3 46.7 1031.9 46.7 
L 970.874219 46.7 
Q 969.474219 46.7 969.474219 48.1 
L 969.474219 88.49875 
Q 969.474219 89.89875 970.874219 89.89875 
z
" style="fill:#ffffff;opacity:0.8;stroke:#cccccc;stroke-linejoin:miter;"/>
    </g>
    <g id="patch_160">
     <path d="M 972.274219 54.818906 
L 986.274219 54.818906 
L 986.274219 49.918906 
L 972.274219 49.918906 
z
" style="fill:#427da6;"/>
    </g>
    <g id="text_75">
     <!-- DeeBERT -->
     <g transform="translate(991.874219 54.818906)scale(0.07 -0.07)">
      <use xlink:href="#DejaVuSans-44"/>
      <use x="77.001953" xlink:href="#DejaVuSans-65"/>
      <use x="138.525391" xlink:href="#DejaVuSans-65"/>
      <use x="200.048828" xlink:href="#DejaVuSans-42"/>
      <use x="268.652344" xlink:href="#DejaVuSans-45"/>
      <use x="331.835938" xlink:href="#DejaVuSans-52"/>
      <use x="401.208984" xlink:href="#DejaVuSans-54"/>
     </g>
    </g>
    <g id="patch_161">
     <path d="M 972.274219 65.093594 
L 986.274219 65.093594 
L 986.274219 60.193594 
L 972.274219 60.193594 
z
" style="fill:#ffa500;"/>
    </g>
    <g id="text_76">
     <!-- RightTool -->
     <g transform="translate(991.874219 65.093594)scale(0.07 -0.07)">
      <use xlink:href="#DejaVuSans-52"/>
      <use x="69.482422" xlink:href="#DejaVuSans-69"/>
      <use x="97.265625" xlink:href="#DejaVuSans-67"/>
      <use x="160.742188" xlink:href="#DejaVuSans-68"/>
      <use x="224.121094" xlink:href="#DejaVuSans-74"/>
      <use x="263.330078" xlink:href="#DejaVuSans-54"/>
      <use x="324.148438" xlink:href="#DejaVuSans-6f"/>
      <use x="385.330078" xlink:href="#DejaVuSans-6f"/>
      <use x="446.511719" xlink:href="#DejaVuSans-6c"/>
     </g>
    </g>
    <g id="patch_162">
     <path d="M 972.274219 75.368281 
L 986.274219 75.368281 
L 986.274219 70.468281 
L 972.274219 70.468281 
z
" style="fill:#008000;"/>
    </g>
    <g id="text_77">
     <!-- RomeBERT -->
     <g transform="translate(991.874219 75.368281)scale(0.07 -0.07)">
      <use xlink:href="#DejaVuSans-52"/>
      <use x="69.419922" xlink:href="#DejaVuSans-6f"/>
      <use x="130.601562" xlink:href="#DejaVuSans-6d"/>
      <use x="228.013672" xlink:href="#DejaVuSans-65"/>
      <use x="289.537109" xlink:href="#DejaVuSans-42"/>
      <use x="358.140625" xlink:href="#DejaVuSans-45"/>
      <use x="421.324219" xlink:href="#DejaVuSans-52"/>
      <use x="490.697266" xlink:href="#DejaVuSans-54"/>
     </g>
    </g>
    <g id="patch_163">
     <path d="M 972.274219 85.642969 
L 986.274219 85.642969 
L 986.274219 80.742969 
L 972.274219 80.742969 
z
" style="fill:#ff0000;"/>
    </g>
    <g id="text_78">
     <!-- OdeBERT -->
     <g transform="translate(991.874219 85.642969)scale(0.07 -0.07)">
      <use xlink:href="#DejaVuSans-4f"/>
      <use x="78.710938" xlink:href="#DejaVuSans-64"/>
      <use x="142.1875" xlink:href="#DejaVuSans-65"/>
      <use x="203.710938" xlink:href="#DejaVuSans-42"/>
      <use x="272.314453" xlink:href="#DejaVuSans-45"/>
      <use x="335.498047" xlink:href="#DejaVuSans-52"/>
      <use x="404.871094" xlink:href="#DejaVuSans-54"/>
     </g>
    </g>
   </g>
  </g>
 </g>
 <defs>
  <clipPath id="p5f310b97af">
   <rect height="277.2" width="262.588235" x="144" y="43.2"/>
  </clipPath>
  <clipPath id="p677e8cbd3f">
   <rect height="277.2" width="262.588235" x="459.105882" y="43.2"/>
  </clipPath>
  <clipPath id="p484e60693b">
   <rect height="277.2" width="262.588235" x="774.211765" y="43.2"/>
  </clipPath>
 </defs>
</svg>
